<?xml version="1.0" encoding="UTF-8"?>
<!DOCTYPE svg PUBLIC "-//W3C//DTD SVG 1.1//EN" "http://www.w3.org/Graphics/SVG/1.1/DTD/svg11.dtd">
<!-- Creator: CorelDRAW 2019 (64-Bit Versión de evaluación) -->
<svg xmlns="http://www.w3.org/2000/svg" xml:space="preserve" width="10%" height="10%" version="1.1" style="shape-rendering:geometricPrecision; text-rendering:geometricPrecision; image-rendering:optimizeQuality; fill-rule:evenodd; clip-rule:evenodd"
viewBox="0 0 233.1 361"
 xmlns:xlink="http://www.w3.org/1999/xlink"
 xmlns:xodm="http://www.corel.com/coreldraw/odm/2003">
 <defs>
  <style type="text/css">
   <![CDATA[
    .fil0 {fill:#111111}
   ]]>
  </style>
 </defs>
 <g id="Capa_x0020_1">
  <metadata id="CorelCorpID_0Corel-Layer"/>
  <g id="_2985656990000">
   <path class="fil0" d="M69.16 224.09c-6.48,-1.37 -55.62,-60.72 -47.24,-123.12 6.55,-48.76 42.3,-80.5 94.86,-80.52 52.97,-0.02 87.93,32.64 94.52,80.7 7.59,55.35 -17.64,81.13 -38.76,114.25 -3.78,5.93 -2.85,11.1 -15.63,8.25l-2.66 -61.18c-4.84,12.79 -3.82,45.12 -4.73,61.83l-72.75 -0 -2.88 -57.09c-0.23,0.48 -0.42,1.09 -0.54,1.5 -0.12,0.41 -0.37,1 -0.5,1.52 -2.61,10.45 -1.32,39.53 -3.68,53.87zm47.61 -224.09c-61.71,0 -105.96,39.17 -114.7,95.19 -9.5,60.85 15.38,93.38 43.92,135.27 1.73,2.55 3.6,5.4 5.57,8.12 3.64,5.01 1.84,3.77 6.61,6.18l113.77 0c8.71,0 19.43,-20.23 26.59,-31.01 7.04,-10.59 13.79,-20.57 19.65,-31.98 37.93,-74 3.45,-181.76 -101.39,-181.76z"/>
   <path class="fil0" d="M171.92 256.19l-110.74 0c3.67,19.54 14.43,23.41 13.07,40.35 -1.04,12.98 0.33,11.67 5.07,21.17 4.12,8.24 2.43,14 2.75,23.58 5.03,2.81 31.02,19.69 34.66,19.71 4.56,0.02 30.9,-17.7 32.63,-20.48 3.85,-6.15 1.77,-14.42 5.24,-22.33 14.63,-33.39 -4.39,-19.76 10.63,-42.88 3.92,-6.04 4.71,-11.69 6.68,-19.12z"/>
   <path class="fil0" d="M75.84 151.24c5.1,-3.91 2.7,-3.4 8.18,-5.5l11.34 25.94c9.38,-6.67 16.78,-14.52 24.43,-21.74 6.9,4.02 13.02,10.04 21.11,14.86 1.71,-4.21 5.71,-11.13 7.76,-14.64 -1.05,1.32 -1.69,2.03 -3.23,3.51l-6.24 4.58 -20.39 -17.68 -20.96 19.13 -11.97 -22.52c-4.72,3.5 -7.6,8.94 -10.02,14.05z"/>
  </g>
 </g>
</svg>
