<?xml version="1.0" encoding="UTF-8"?>
<!DOCTYPE svg PUBLIC "-//W3C//DTD SVG 1.1//EN" "http://www.w3.org/Graphics/SVG/1.1/DTD/svg11.dtd">
<!-- Creator: CorelDRAW 2019 (64-Bit Versión de evaluación) -->
<svg xmlns="http://www.w3.org/2000/svg" xml:space="preserve" width="20%" height="20%" version="1.1" style="shape-rendering:geometricPrecision; text-rendering:geometricPrecision; image-rendering:optimizeQuality; fill-rule:evenodd; clip-rule:evenodd"
viewBox="0 0 4289.91 722"
 xmlns:xlink="http://www.w3.org/1999/xlink"
 xmlns:xodm="http://www.corel.com/coreldraw/odm/2003">
 <defs>
  <style type="text/css">
   <![CDATA[
    .str0 {stroke:#41A3C3;stroke-width:28.22;stroke-miterlimit:22.9256}
    .str1 {stroke:#999999;stroke-width:21.17;stroke-miterlimit:22.9256}
    .fil3 {fill:none}
    .fil2 {fill:none;fill-rule:nonzero}
    .fil0 {fill:#111111}
    .fil1 {fill:#41A3C3;fill-rule:nonzero}
   ]]>
  </style>
 </defs>
 <g id="Capa_x0020_1">
  <metadata id="CorelCorpID_0Corel-Layer"/>
  <g id="_1863943455280">
   <path class="fil0" d="M138.32 448.17c-12.97,-2.74 -111.25,-121.44 -94.49,-246.25 13.1,-97.53 84.59,-161 189.73,-161.04 105.94,-0.03 175.85,65.28 189.03,161.4 15.18,110.7 -35.29,162.26 -77.52,228.51 -7.57,11.87 -5.69,22.21 -31.26,16.5l-5.31 -122.36c-9.68,25.59 -7.64,90.24 -9.46,123.66l-145.5 -0.01 -5.77 -114.18c-0.46,0.96 -0.85,2.17 -1.08,2.99 -0.23,0.83 -0.73,2.01 -0.99,3.04 -5.21,20.91 -2.65,79.06 -7.37,107.73zm95.21 -448.17c-123.42,0 -211.91,78.33 -229.41,190.38 -19,121.7 30.76,186.76 87.85,270.54 3.47,5.09 7.19,10.81 11.14,16.24 7.27,10.01 3.69,7.53 13.21,12.35l227.53 0c17.41,0 38.85,-40.46 53.18,-62.01 14.07,-21.18 27.59,-41.14 39.29,-63.97 75.87,-148 6.91,-363.53 -202.78,-363.53z"/>
   <path class="fil0" d="M343.85 512.37l-221.49 0c7.35,39.08 28.86,46.82 26.15,80.7 -2.07,25.96 0.66,23.34 10.14,42.34 8.23,16.49 4.86,28 5.51,47.15 10.05,5.62 62.03,39.38 69.33,39.42 9.12,0.05 61.79,-35.4 65.27,-40.96 7.69,-12.3 3.54,-28.84 10.47,-44.66 29.26,-66.79 -8.77,-39.51 21.27,-85.76 7.84,-12.07 9.42,-23.37 13.35,-38.25z"/>
   <path class="fil0" d="M151.67 302.48c10.19,-7.81 5.41,-6.81 16.35,-10.99l22.68 51.89c18.76,-13.34 33.56,-29.03 48.86,-43.47 13.8,8.05 26.03,20.08 42.21,29.73 3.42,-8.42 11.41,-22.25 15.52,-29.28 -2.1,2.64 -3.39,4.06 -6.47,7.01l-12.48 9.16 -40.78 -35.36 -41.91 38.26 -23.94 -45.04c-9.43,6.99 -15.21,17.87 -20.04,28.09z"/>
  </g>
  <polygon class="fil1" points="819.57,539.47 819.57,182.53 861.06,182.53 861.06,539.47 "/>
  <path id="1" class="fil1" d="M1242.58 357.58c0,40.16 -7.33,73.74 -21.91,100.73 -14.66,26.91 -35.91,47.16 -63.65,60.74 -27.75,13.58 -61.32,20.41 -100.9,20.41l-96.9 0 0 -356.94 107.65 0c36.24,0 67.49,6.67 93.73,19.91 26.16,13.25 46.41,32.83 60.66,58.82 14.25,26 21.33,58.07 21.33,96.32zm-43.66 1.5c0,-32.08 -5.33,-58.57 -16,-79.4 -10.67,-20.83 -26.25,-36.33 -46.83,-46.49 -20.66,-10.16 -45.82,-15.25 -75.57,-15.25l-59.82 0 0 285.87 50.49 0c49.16,0 86.07,-12.08 110.73,-36.33 24.66,-24.25 36.99,-60.41 36.99,-108.4z"/>
  <polygon id="2" class="fil1" points="1520.7,539.47 1321.98,539.47 1321.98,182.53 1520.7,182.53 1520.7,219.11 1363.47,219.11 1363.47,334.84 1511.61,334.84 1511.61,371 1363.47,371 1363.47,502.81 1520.7,502.81 "/>
  <path id="3" class="fil1" d="M1823.56 539.47l-43.91 -112.98 -143.06 0 -43.66 112.98 -41.99 0 139.64 -356.94 37.33 0 138.64 356.94 -42.99 0zm-56.32 -149.81l-41.74 -111.9c-1,-2.92 -2.58,-7.67 -4.75,-14.33 -2.25,-6.67 -4.5,-13.5 -6.75,-20.66 -2.25,-7.08 -4.17,-12.83 -5.58,-17.16 -1.67,6.58 -3.42,13.16 -5.25,19.75 -1.92,6.58 -3.75,12.58 -5.5,18.16 -1.83,5.58 -3.33,10.33 -4.67,14.25l-42.49 111.9 116.73 0z"/>
  <path id="4" class="fil1" d="M2117.26 444.82c0,21.25 -5.25,39.33 -15.75,54.24 -10.5,14.91 -25.16,26.33 -44.07,34.16 -18.83,7.83 -41.08,11.75 -66.66,11.75 -13.5,0 -26.25,-0.67 -38.33,-1.92 -12,-1.33 -23.08,-3.25 -33.16,-5.66 -10.08,-2.42 -19,-5.42 -26.58,-9l0 -39.83c12.16,5.08 27.08,9.75 44.66,14.08 17.58,4.25 35.91,6.41 55.16,6.41 17.91,0 32.99,-2.42 45.41,-7.25 12.33,-4.75 21.75,-11.75 28.16,-20.83 6.42,-9.08 9.67,-19.91 9.67,-32.74 0,-12.16 -2.67,-22.41 -8.08,-30.66 -5.33,-8.25 -14.25,-15.75 -26.75,-22.58 -12.41,-6.75 -29.41,-14 -50.82,-21.66 -15.16,-5.33 -28.5,-11.25 -40.08,-17.75 -11.58,-6.42 -21.25,-13.75 -29.08,-21.91 -7.75,-8.16 -13.67,-17.58 -17.66,-28.33 -4,-10.83 -6,-23.16 -6,-36.99 0,-19.08 4.83,-35.49 14.58,-49.08 9.66,-13.66 23.08,-24.08 40.24,-31.33 17.16,-7.25 36.91,-10.91 59.16,-10.91 19.08,0 36.66,1.75 52.91,5.33 16.16,3.58 30.99,8.42 44.49,14.41l-12.91 35.66c-12.83,-5.33 -26.5,-9.83 -40.91,-13.41 -14.33,-3.58 -29.24,-5.42 -44.49,-5.42 -15.33,0 -28.24,2.25 -38.74,6.75 -10.5,4.5 -18.5,10.83 -23.99,19.08 -5.58,8.16 -8.33,17.83 -8.33,29.16 0,12.58 2.67,22.99 7.91,31.33 5.33,8.33 13.75,15.66 25.41,22.16 11.67,6.42 27.08,13.16 46.24,20.16 21,7.67 38.83,15.83 53.49,24.41 14.66,8.5 25.74,19 33.41,31.33 7.67,12.25 11.5,27.91 11.5,46.83z"/>
  <path id="5" class="fil1" d="M2413.12 182.53c46.08,0 79.74,9 100.98,27 21.16,17.91 31.83,43.66 31.83,77.24 0,15.08 -2.5,29.5 -7.5,43.08 -4.92,13.58 -12.91,25.5 -24,35.83 -11.08,10.33 -25.58,18.5 -43.58,24.41 -18,5.92 -39.99,8.91 -66.07,8.91l-43.41 0 0 140.48 -41.49 0 0 -356.94 93.23 0zm-3.92 35.41l-47.82 0 0 145.39 38.83 0c22.75,0 41.74,-2.42 56.99,-7.33 15.25,-4.83 26.66,-12.75 34.33,-23.75 7.58,-11 11.41,-25.58 11.41,-43.83 0,-23.74 -7.58,-41.41 -22.66,-53.07 -15.16,-11.58 -38.83,-17.41 -71.07,-17.41z"/>
  <path id="6" class="fil1" d="M2716.99 182.53c29.33,0 53.49,3.58 72.65,10.83 19.08,7.25 33.41,18.33 42.83,33.08 9.42,14.83 14.16,33.74 14.16,56.66 0,18.83 -3.42,34.58 -10.25,47.24 -6.83,12.58 -15.83,22.83 -26.83,30.66 -11.08,7.75 -22.91,13.83 -35.41,18l97.9 160.47 -48.41 0 -87.32 -148.97 -74.24 0 0 148.97 -41.49 0 0 -356.94 96.4 0zm-2.42 35.91l-52.49 0 0 136.89 56.66 0c29.08,0 50.57,-5.92 64.32,-17.83 13.75,-11.83 20.58,-29.33 20.58,-52.49 0,-24.24 -7.25,-41.41 -21.83,-51.49 -14.58,-10.08 -36.99,-15.08 -67.24,-15.08z"/>
  <path id="7" class="fil1" d="M3238.65 360.83c0,27.58 -3.5,52.66 -10.5,75.24 -7,22.58 -17.41,41.91 -31.16,58.16 -13.75,16.25 -30.74,28.74 -51.07,37.58 -20.41,8.75 -43.99,13.17 -70.82,13.17 -27.66,0 -51.83,-4.42 -72.4,-13.17 -20.58,-8.83 -37.66,-21.41 -51.24,-37.66 -13.58,-16.33 -23.75,-35.83 -30.49,-58.49 -6.75,-22.66 -10.17,-47.74 -10.17,-75.24 0,-36.58 6,-68.57 18.08,-96.07 12.08,-27.58 30.33,-48.99 54.82,-64.32 24.5,-15.33 55.16,-23 92.15,-23 35.33,0 64.99,7.58 89.24,22.75 24.16,15.16 42.41,36.49 54.91,63.91 12.41,27.49 18.66,59.91 18.66,97.15zm-284.12 0c0,30.33 4.25,56.66 12.92,78.82 8.58,22.16 21.83,39.24 39.66,51.32 17.83,12.08 40.49,18.08 67.99,18.08 27.66,0 50.32,-6 67.99,-18.08 17.66,-12.08 30.66,-29.16 39.16,-51.32 8.5,-22.16 12.67,-48.49 12.67,-78.82 0,-46.07 -9.58,-82.15 -28.91,-108.15 -19.25,-26.08 -49.32,-39.08 -90.15,-39.08 -27.66,0 -50.49,6 -68.4,17.91 -17.83,11.91 -31.16,28.83 -39.91,50.74 -8.66,21.91 -13,48.16 -13,78.57z"/>
  <path id="8" class="fil1" d="M3411.2 182.53c46.08,0 79.74,9 100.98,27 21.16,17.91 31.83,43.66 31.83,77.24 0,15.08 -2.5,29.5 -7.5,43.08 -4.92,13.58 -12.91,25.5 -24,35.83 -11.08,10.33 -25.58,18.5 -43.58,24.41 -18,5.92 -39.99,8.91 -66.07,8.91l-43.41 0 0 140.48 -41.49 0 0 -356.94 93.23 0zm-3.92 35.41l-47.82 0 0 145.39 38.83 0c22.75,0 41.74,-2.42 56.99,-7.33 15.25,-4.83 26.66,-12.75 34.33,-23.75 7.58,-11 11.41,-25.58 11.41,-43.83 0,-23.74 -7.58,-41.41 -22.66,-53.07 -15.16,-11.58 -38.83,-17.41 -71.07,-17.41z"/>
  <polygon id="9" class="fil1" points="3618.66,539.47 3618.66,182.53 3660.16,182.53 3660.16,539.47 "/>
  <path id="10" class="fil1" d="M3982.1 539.47l-43.91 -112.98 -143.06 0 -43.66 112.98 -41.99 0 139.64 -356.94 37.33 0 138.64 356.94 -42.99 0zm-56.32 -149.81l-41.74 -111.9c-1,-2.92 -2.58,-7.67 -4.75,-14.33 -2.25,-6.67 -4.5,-13.5 -6.75,-20.66 -2.25,-7.08 -4.17,-12.83 -5.58,-17.16 -1.67,6.58 -3.42,13.16 -5.25,19.75 -1.92,6.58 -3.75,12.58 -5.5,18.16 -1.83,5.58 -3.33,10.33 -4.67,14.25l-42.49 111.9 116.73 0z"/>
  <path id="11" class="fil1" d="M4275.8 444.82c0,21.25 -5.25,39.33 -15.75,54.24 -10.5,14.91 -25.16,26.33 -44.07,34.16 -18.83,7.83 -41.08,11.75 -66.66,11.75 -13.5,0 -26.25,-0.67 -38.33,-1.92 -12,-1.33 -23.08,-3.25 -33.16,-5.66 -10.08,-2.42 -19,-5.42 -26.58,-9l0 -39.83c12.16,5.08 27.08,9.75 44.66,14.08 17.58,4.25 35.91,6.41 55.16,6.41 17.91,0 32.99,-2.42 45.41,-7.25 12.33,-4.75 21.75,-11.75 28.16,-20.83 6.42,-9.08 9.67,-19.91 9.67,-32.74 0,-12.16 -2.67,-22.41 -8.08,-30.66 -5.33,-8.25 -14.25,-15.75 -26.75,-22.58 -12.41,-6.75 -29.41,-14 -50.82,-21.66 -15.16,-5.33 -28.5,-11.25 -40.08,-17.75 -11.58,-6.42 -21.25,-13.75 -29.08,-21.91 -7.75,-8.16 -13.67,-17.58 -17.66,-28.33 -4,-10.83 -6,-23.16 -6,-36.99 0,-19.08 4.83,-35.49 14.58,-49.08 9.66,-13.66 23.08,-24.08 40.24,-31.33 17.16,-7.25 36.91,-10.91 59.16,-10.91 19.08,0 36.66,1.75 52.91,5.33 16.16,3.58 30.99,8.42 44.49,14.41l-12.91 35.66c-12.83,-5.33 -26.5,-9.83 -40.91,-13.41 -14.33,-3.58 -29.24,-5.42 -44.49,-5.42 -15.33,0 -28.24,2.25 -38.74,6.75 -10.5,4.5 -18.5,10.83 -23.99,19.08 -5.58,8.16 -8.33,17.83 -8.33,29.16 0,12.58 2.67,22.99 7.91,31.33 5.33,8.33 13.75,15.66 25.41,22.16 11.67,6.42 27.08,13.16 46.24,20.16 21,7.67 38.83,15.83 53.49,24.41 14.66,8.5 25.74,19 33.41,31.33 7.67,12.25 11.5,27.91 11.5,46.83z"/>
  <polygon id="12" class="fil2 str0" points="819.57,539.47 819.57,182.53 861.06,182.53 861.06,539.47 "/>
  <path id="13" class="fil2 str0" d="M1242.58 357.58c0,40.16 -7.33,73.74 -21.91,100.73 -14.66,26.91 -35.91,47.16 -63.65,60.74 -27.75,13.58 -61.32,20.41 -100.9,20.41l-96.9 0 0 -356.94 107.65 0c36.24,0 67.49,6.67 93.73,19.91 26.16,13.25 46.41,32.83 60.66,58.82 14.25,26 21.33,58.07 21.33,96.32zm-43.66 1.5c0,-32.08 -5.33,-58.57 -16,-79.4 -10.67,-20.83 -26.25,-36.33 -46.83,-46.49 -20.66,-10.16 -45.82,-15.25 -75.57,-15.25l-59.82 0 0 285.87 50.49 0c49.16,0 86.07,-12.08 110.73,-36.33 24.66,-24.25 36.99,-60.41 36.99,-108.4z"/>
  <polygon id="14" class="fil2 str0" points="1520.7,539.47 1321.98,539.47 1321.98,182.53 1520.7,182.53 1520.7,219.11 1363.47,219.11 1363.47,334.84 1511.61,334.84 1511.61,371 1363.47,371 1363.47,502.81 1520.7,502.81 "/>
  <path id="15" class="fil2 str0" d="M1823.56 539.47l-43.91 -112.98 -143.06 0 -43.66 112.98 -41.99 0 139.64 -356.94 37.33 0 138.64 356.94 -42.99 0zm-56.32 -149.81l-41.74 -111.9c-1,-2.92 -2.58,-7.67 -4.75,-14.33 -2.25,-6.67 -4.5,-13.5 -6.75,-20.66 -2.25,-7.08 -4.17,-12.83 -5.58,-17.16 -1.67,6.58 -3.42,13.16 -5.25,19.75 -1.92,6.58 -3.75,12.58 -5.5,18.16 -1.83,5.58 -3.33,10.33 -4.67,14.25l-42.49 111.9 116.73 0z"/>
  <path id="16" class="fil2 str0" d="M2117.26 444.82c0,21.25 -5.25,39.33 -15.75,54.24 -10.5,14.91 -25.16,26.33 -44.07,34.16 -18.83,7.83 -41.08,11.75 -66.66,11.75 -13.5,0 -26.25,-0.67 -38.33,-1.92 -12,-1.33 -23.08,-3.25 -33.16,-5.66 -10.08,-2.42 -19,-5.42 -26.58,-9l0 -39.83c12.16,5.08 27.08,9.75 44.66,14.08 17.58,4.25 35.91,6.41 55.16,6.41 17.91,0 32.99,-2.42 45.41,-7.25 12.33,-4.75 21.75,-11.75 28.16,-20.83 6.42,-9.08 9.67,-19.91 9.67,-32.74 0,-12.16 -2.67,-22.41 -8.08,-30.66 -5.33,-8.25 -14.25,-15.75 -26.75,-22.58 -12.41,-6.75 -29.41,-14 -50.82,-21.66 -15.16,-5.33 -28.5,-11.25 -40.08,-17.75 -11.58,-6.42 -21.25,-13.75 -29.08,-21.91 -7.75,-8.16 -13.67,-17.58 -17.66,-28.33 -4,-10.83 -6,-23.16 -6,-36.99 0,-19.08 4.83,-35.49 14.58,-49.08 9.66,-13.66 23.08,-24.08 40.24,-31.33 17.16,-7.25 36.91,-10.91 59.16,-10.91 19.08,0 36.66,1.75 52.91,5.33 16.16,3.58 30.99,8.42 44.49,14.41l-12.91 35.66c-12.83,-5.33 -26.5,-9.83 -40.91,-13.41 -14.33,-3.58 -29.24,-5.42 -44.49,-5.42 -15.33,0 -28.24,2.25 -38.74,6.75 -10.5,4.5 -18.5,10.83 -23.99,19.08 -5.58,8.16 -8.33,17.83 -8.33,29.16 0,12.58 2.67,22.99 7.91,31.33 5.33,8.33 13.75,15.66 25.41,22.16 11.67,6.42 27.08,13.16 46.24,20.16 21,7.67 38.83,15.83 53.49,24.41 14.66,8.5 25.74,19 33.41,31.33 7.67,12.25 11.5,27.91 11.5,46.83z"/>
  <path id="17" class="fil2 str0" d="M2413.12 182.53c46.08,0 79.74,9 100.98,27 21.16,17.91 31.83,43.66 31.83,77.24 0,15.08 -2.5,29.5 -7.5,43.08 -4.92,13.58 -12.91,25.5 -24,35.83 -11.08,10.33 -25.58,18.5 -43.58,24.41 -18,5.92 -39.99,8.91 -66.07,8.91l-43.41 0 0 140.48 -41.49 0 0 -356.94 93.23 0zm-3.92 35.41l-47.82 0 0 145.39 38.83 0c22.75,0 41.74,-2.42 56.99,-7.33 15.25,-4.83 26.66,-12.75 34.33,-23.75 7.58,-11 11.41,-25.58 11.41,-43.83 0,-23.74 -7.58,-41.41 -22.66,-53.07 -15.16,-11.58 -38.83,-17.41 -71.07,-17.41z"/>
  <path id="18" class="fil2 str0" d="M2716.99 182.53c29.33,0 53.49,3.58 72.65,10.83 19.08,7.25 33.41,18.33 42.83,33.08 9.42,14.83 14.16,33.74 14.16,56.66 0,18.83 -3.42,34.58 -10.25,47.24 -6.83,12.58 -15.83,22.83 -26.83,30.66 -11.08,7.75 -22.91,13.83 -35.41,18l97.9 160.47 -48.41 0 -87.32 -148.97 -74.24 0 0 148.97 -41.49 0 0 -356.94 96.4 0zm-2.42 35.91l-52.49 0 0 136.89 56.66 0c29.08,0 50.57,-5.92 64.32,-17.83 13.75,-11.83 20.58,-29.33 20.58,-52.49 0,-24.24 -7.25,-41.41 -21.83,-51.49 -14.58,-10.08 -36.99,-15.08 -67.24,-15.08z"/>
  <path id="19" class="fil2 str0" d="M3238.65 360.83c0,27.58 -3.5,52.66 -10.5,75.24 -7,22.58 -17.41,41.91 -31.16,58.16 -13.75,16.25 -30.74,28.74 -51.07,37.58 -20.41,8.75 -43.99,13.17 -70.82,13.17 -27.66,0 -51.83,-4.42 -72.4,-13.17 -20.58,-8.83 -37.66,-21.41 -51.24,-37.66 -13.58,-16.33 -23.75,-35.83 -30.49,-58.49 -6.75,-22.66 -10.17,-47.74 -10.17,-75.24 0,-36.58 6,-68.57 18.08,-96.07 12.08,-27.58 30.33,-48.99 54.82,-64.32 24.5,-15.33 55.16,-23 92.15,-23 35.33,0 64.99,7.58 89.24,22.75 24.16,15.16 42.41,36.49 54.91,63.91 12.41,27.49 18.66,59.91 18.66,97.15zm-284.12 0c0,30.33 4.25,56.66 12.92,78.82 8.58,22.16 21.83,39.24 39.66,51.32 17.83,12.08 40.49,18.08 67.99,18.08 27.66,0 50.32,-6 67.99,-18.08 17.66,-12.08 30.66,-29.16 39.16,-51.32 8.5,-22.16 12.67,-48.49 12.67,-78.82 0,-46.07 -9.58,-82.15 -28.91,-108.15 -19.25,-26.08 -49.32,-39.08 -90.15,-39.08 -27.66,0 -50.49,6 -68.4,17.91 -17.83,11.91 -31.16,28.83 -39.91,50.74 -8.66,21.91 -13,48.16 -13,78.57z"/>
  <path id="20" class="fil2 str0" d="M3411.2 182.53c46.08,0 79.74,9 100.98,27 21.16,17.91 31.83,43.66 31.83,77.24 0,15.08 -2.5,29.5 -7.5,43.08 -4.92,13.58 -12.91,25.5 -24,35.83 -11.08,10.33 -25.58,18.5 -43.58,24.41 -18,5.92 -39.99,8.91 -66.07,8.91l-43.41 0 0 140.48 -41.49 0 0 -356.94 93.23 0zm-3.92 35.41l-47.82 0 0 145.39 38.83 0c22.75,0 41.74,-2.42 56.99,-7.33 15.25,-4.83 26.66,-12.75 34.33,-23.75 7.58,-11 11.41,-25.58 11.41,-43.83 0,-23.74 -7.58,-41.41 -22.66,-53.07 -15.16,-11.58 -38.83,-17.41 -71.07,-17.41z"/>
  <polygon id="21" class="fil2 str0" points="3618.66,539.47 3618.66,182.53 3660.16,182.53 3660.16,539.47 "/>
  <path id="22" class="fil2 str0" d="M3982.1 539.47l-43.91 -112.98 -143.06 0 -43.66 112.98 -41.99 0 139.64 -356.94 37.33 0 138.64 356.94 -42.99 0zm-56.32 -149.81l-41.74 -111.9c-1,-2.92 -2.58,-7.67 -4.75,-14.33 -2.25,-6.67 -4.5,-13.5 -6.75,-20.66 -2.25,-7.08 -4.17,-12.83 -5.58,-17.16 -1.67,6.58 -3.42,13.16 -5.25,19.75 -1.92,6.58 -3.75,12.58 -5.5,18.16 -1.83,5.58 -3.33,10.33 -4.67,14.25l-42.49 111.9 116.73 0z"/>
  <path id="23" class="fil2 str0" d="M4275.8 444.82c0,21.25 -5.25,39.33 -15.75,54.24 -10.5,14.91 -25.16,26.33 -44.07,34.16 -18.83,7.83 -41.08,11.75 -66.66,11.75 -13.5,0 -26.25,-0.67 -38.33,-1.92 -12,-1.33 -23.08,-3.25 -33.16,-5.66 -10.08,-2.42 -19,-5.42 -26.58,-9l0 -39.83c12.16,5.08 27.08,9.75 44.66,14.08 17.58,4.25 35.91,6.41 55.16,6.41 17.91,0 32.99,-2.42 45.41,-7.25 12.33,-4.75 21.75,-11.75 28.16,-20.83 6.42,-9.08 9.67,-19.91 9.67,-32.74 0,-12.16 -2.67,-22.41 -8.08,-30.66 -5.33,-8.25 -14.25,-15.75 -26.75,-22.58 -12.41,-6.75 -29.41,-14 -50.82,-21.66 -15.16,-5.33 -28.5,-11.25 -40.08,-17.75 -11.58,-6.42 -21.25,-13.75 -29.08,-21.91 -7.75,-8.16 -13.67,-17.58 -17.66,-28.33 -4,-10.83 -6,-23.16 -6,-36.99 0,-19.08 4.83,-35.49 14.58,-49.08 9.66,-13.66 23.08,-24.08 40.24,-31.33 17.16,-7.25 36.91,-10.91 59.16,-10.91 19.08,0 36.66,1.75 52.91,5.33 16.16,3.58 30.99,8.42 44.49,14.41l-12.91 35.66c-12.83,-5.33 -26.5,-9.83 -40.91,-13.41 -14.33,-3.58 -29.24,-5.42 -44.49,-5.42 -15.33,0 -28.24,2.25 -38.74,6.75 -10.5,4.5 -18.5,10.83 -23.99,19.08 -5.58,8.16 -8.33,17.83 -8.33,29.16 0,12.58 2.67,22.99 7.91,31.33 5.33,8.33 13.75,15.66 25.41,22.16 11.67,6.42 27.08,13.16 46.24,20.16 21,7.67 38.83,15.83 53.49,24.41 14.66,8.5 25.74,19 33.41,31.33 7.67,12.25 11.5,27.91 11.5,46.83z"/>
  <line class="fil3 str1" x1="642.88" y1="63.08" x2="642.88" y2= "658.91" />
 </g>
</svg>
