<?xml version="1.0" encoding="UTF-8"?>
<!DOCTYPE svg PUBLIC "-//W3C//DTD SVG 1.1//EN" "http://www.w3.org/Graphics/SVG/1.1/DTD/svg11.dtd">
<!-- Creator: CorelDRAW 2019 (64-Bit Versión de evaluación) -->
<svg xmlns="http://www.w3.org/2000/svg" xml:space="preserve" width="15%" height="15%" version="1.1" style="shape-rendering:geometricPrecision; text-rendering:geometricPrecision; image-rendering:optimizeQuality; fill-rule:evenodd; clip-rule:evenodd"
viewBox="0 0 3217.43 541.5"
 xmlns:xlink="http://www.w3.org/1999/xlink"
 xmlns:xodm="http://www.corel.com/coreldraw/odm/2003">
 <defs>
  <style type="text/css">
   <![CDATA[
    .str0 {stroke:black;stroke-width:21.17;stroke-miterlimit:22.9256}
    .str1 {stroke:black;stroke-width:15.87;stroke-miterlimit:22.9256}
    .fil3 {fill:none}
    .fil2 {fill:none;fill-rule:nonzero}
    .fil0 {fill:#111111}
    .fil1 {fill:black;fill-rule:nonzero}
   ]]>
  </style>
 </defs>
 <g id="Capa_x0020_1">
  <metadata id="CorelCorpID_0Corel-Layer"/>
  <g id="_2432177196032">
   <path class="fil0" d="M103.74 336.13c-9.72,-2.05 -83.44,-91.08 -70.86,-184.68 9.82,-73.14 63.44,-120.75 142.29,-120.78 79.45,-0.03 131.89,48.96 141.77,121.05 11.39,83.02 -26.47,121.7 -58.14,171.38 -5.67,8.9 -4.27,16.66 -23.45,12.37l-3.98 -91.77c-7.26,19.19 -5.73,67.68 -7.1,92.74l-109.13 -0.01 -4.33 -85.63c-0.34,0.72 -0.63,1.63 -0.81,2.24 -0.18,0.62 -0.55,1.5 -0.75,2.28 -3.91,15.68 -1.98,59.29 -5.53,80.8zm71.41 -336.13c-92.56,0 -158.93,58.75 -172.06,142.79 -14.25,91.27 23.07,140.07 65.88,202.91 2.6,3.82 5.39,8.11 8.35,12.18 5.46,7.51 2.77,5.65 9.91,9.26l170.65 0c13.06,0 29.14,-30.35 39.88,-46.51 10.56,-15.88 20.69,-30.85 29.47,-47.98 56.9,-111 5.18,-272.64 -152.09,-272.64z"/>
   <path class="fil0" d="M257.88 384.28l-166.12 0c5.51,29.31 21.64,35.12 19.61,60.53 -1.56,19.47 0.49,17.5 7.61,31.76 6.17,12.37 3.65,21 4.13,35.36 7.54,4.21 46.53,29.54 51.99,29.57 6.84,0.04 46.34,-26.55 48.95,-30.72 5.77,-9.23 2.66,-21.63 7.85,-33.49 21.94,-50.09 -6.58,-29.63 15.95,-64.32 5.88,-9.05 7.07,-17.53 10.01,-28.69z"/>
   <path class="fil0" d="M113.75 226.86c7.65,-5.86 4.05,-5.1 12.27,-8.25l17.01 38.91c14.07,-10 25.17,-21.77 36.65,-32.6 10.35,6.04 19.53,15.06 31.66,22.29 2.57,-6.31 8.56,-16.69 11.64,-21.96 -1.57,1.98 -2.54,3.05 -4.85,5.26l-9.36 6.87 -30.59 -26.52 -31.44 28.7 -17.95 -33.78c-7.07,5.24 -11.4,13.4 -15.03,21.07z"/>
  </g>
  <polygon class="fil1" points="614.68,404.6 614.68,136.9 645.8,136.9 645.8,404.6 "/>
  <path id="1" class="fil1" d="M931.93 268.19c0,30.12 -5.5,55.3 -16.44,75.55 -11,20.18 -26.93,35.37 -47.74,45.55 -20.81,10.19 -45.99,15.31 -75.67,15.31l-72.68 0 0 -267.7 80.74 0c27.18,0 50.62,5 70.3,14.94 19.62,9.94 34.81,24.62 45.49,44.12 10.69,19.5 16,43.56 16,72.24zm-32.74 1.13c0,-24.06 -4,-43.93 -12,-59.55 -8,-15.62 -19.68,-27.24 -35.12,-34.87 -15.5,-7.62 -34.37,-11.43 -56.68,-11.43l-44.87 0 0 214.4 37.87 0c36.87,0 64.55,-9.06 83.05,-27.25 18.5,-18.18 27.74,-45.3 27.74,-81.3z"/>
  <polygon id="2" class="fil1" points="1140.52,404.6 991.48,404.6 991.48,136.9 1140.52,136.9 1140.52,164.33 1022.61,164.33 1022.61,251.13 1133.71,251.13 1133.71,278.25 1022.61,278.25 1022.61,377.1 1140.52,377.1 "/>
  <path id="3" class="fil1" d="M1367.67 404.6l-32.93 -84.74 -107.29 0 -32.74 84.74 -31.49 0 104.73 -267.7 27.99 0 103.98 267.7 -32.25 0zm-42.24 -112.35l-31.31 -83.92c-0.75,-2.19 -1.94,-5.75 -3.56,-10.75 -1.69,-5 -3.38,-10.12 -5.06,-15.5 -1.69,-5.31 -3.12,-9.62 -4.19,-12.87 -1.25,4.94 -2.56,9.87 -3.94,14.81 -1.44,4.94 -2.81,9.44 -4.13,13.62 -1.37,4.19 -2.5,7.75 -3.5,10.69l-31.87 83.92 87.55 0z"/>
  <path id="4" class="fil1" d="M1587.94 333.61c0,15.93 -3.94,29.49 -11.81,40.68 -7.87,11.19 -18.87,19.75 -33.06,25.62 -14.12,5.87 -30.81,8.81 -49.99,8.81 -10.12,0 -19.68,-0.5 -28.74,-1.44 -9,-1 -17.31,-2.44 -24.87,-4.25 -7.56,-1.81 -14.25,-4.06 -19.93,-6.75l0 -29.87c9.12,3.81 20.31,7.31 33.49,10.56 13.19,3.19 26.93,4.81 41.37,4.81 13.44,0 24.75,-1.81 34.06,-5.44 9.25,-3.56 16.31,-8.81 21.12,-15.62 4.81,-6.81 7.25,-14.93 7.25,-24.56 0,-9.12 -2,-16.81 -6.06,-23 -4,-6.19 -10.69,-11.81 -20.06,-16.93 -9.31,-5.06 -22.06,-10.5 -38.12,-16.25 -11.37,-4 -21.37,-8.44 -30.06,-13.31 -8.69,-4.81 -15.93,-10.31 -21.81,-16.44 -5.81,-6.12 -10.25,-13.19 -13.25,-21.25 -3,-8.12 -4.5,-17.37 -4.5,-27.74 0,-14.31 3.63,-26.62 10.94,-36.81 7.25,-10.25 17.31,-18.06 30.18,-23.5 12.87,-5.44 27.68,-8.19 44.37,-8.19 14.31,0 27.49,1.31 39.68,4 12.12,2.69 23.25,6.31 33.37,10.81l-9.69 26.75c-9.62,-4 -19.87,-7.37 -30.68,-10.06 -10.75,-2.69 -21.93,-4.06 -33.37,-4.06 -11.5,0 -21.18,1.69 -29.06,5.06 -7.87,3.37 -13.87,8.12 -18,14.31 -4.19,6.12 -6.25,13.37 -6.25,21.87 0,9.44 2,17.25 5.94,23.49 4,6.25 10.31,11.75 19.06,16.62 8.75,4.81 20.31,9.87 34.68,15.12 15.75,5.75 29.12,11.87 40.12,18.31 11,6.37 19.31,14.25 25.06,23.49 5.75,9.19 8.62,20.93 8.62,35.12z"/>
  <path id="5" class="fil1" d="M1809.84 136.9c34.56,0 59.8,6.75 75.74,20.25 15.87,13.44 23.87,32.75 23.87,57.93 0,11.31 -1.88,22.12 -5.62,32.31 -3.69,10.19 -9.69,19.12 -18,26.87 -8.31,7.75 -19.18,13.87 -32.68,18.31 -13.5,4.44 -29.99,6.69 -49.55,6.69l-32.56 0 0 105.36 -31.12 0 0 -267.7 69.93 0zm-2.94 26.56l-35.87 0 0 109.04 29.12 0c17.06,0 31.31,-1.81 42.74,-5.5 11.44,-3.62 20,-9.56 25.75,-17.81 5.69,-8.25 8.56,-19.18 8.56,-32.87 0,-17.81 -5.69,-31.06 -17,-39.81 -11.37,-8.69 -29.12,-13.06 -53.3,-13.06z"/>
  <path id="6" class="fil1" d="M2037.74 136.9c22,0 40.12,2.69 54.49,8.12 14.31,5.44 25.06,13.75 32.12,24.81 7.06,11.12 10.62,25.31 10.62,42.49 0,14.12 -2.56,25.93 -7.69,35.43 -5.12,9.44 -11.87,17.12 -20.12,23 -8.31,5.81 -17.19,10.37 -26.56,13.5l73.42 120.35 -36.31 0 -65.49 -111.73 -55.68 0 0 111.73 -31.12 0 0 -267.7 72.3 0zm-1.81 26.93l-39.37 0 0 102.67 42.49 0c21.81,0 37.93,-4.44 48.24,-13.37 10.31,-8.87 15.43,-22 15.43,-39.37 0,-18.18 -5.44,-31.06 -16.37,-38.62 -10.93,-7.56 -27.75,-11.31 -50.43,-11.31z"/>
  <path id="7" class="fil1" d="M2428.98 270.62c0,20.68 -2.63,39.49 -7.87,56.43 -5.25,16.93 -13.06,31.43 -23.37,43.62 -10.31,12.19 -23.06,21.56 -38.31,28.18 -15.31,6.56 -32.99,9.87 -53.11,9.87 -20.75,0 -38.87,-3.31 -54.3,-9.87 -15.44,-6.62 -28.25,-16.06 -38.43,-28.25 -10.18,-12.25 -17.81,-26.87 -22.87,-43.87 -5.06,-17 -7.62,-35.81 -7.62,-56.43 0,-27.43 4.5,-51.43 13.56,-72.05 9.06,-20.68 22.75,-36.74 41.12,-48.24 18.37,-11.5 41.37,-17.25 69.11,-17.25 26.5,0 48.74,5.69 66.93,17.06 18.12,11.37 31.81,27.37 41.18,47.93 9.31,20.62 14,44.93 14,72.86zm-213.09 0c0,22.75 3.19,42.49 9.69,59.12 6.44,16.62 16.37,29.43 29.74,38.49 13.37,9.06 30.37,13.56 50.99,13.56 20.74,0 37.74,-4.5 50.99,-13.56 13.25,-9.06 22.99,-21.87 29.37,-38.49 6.38,-16.62 9.5,-36.37 9.5,-59.12 0,-34.56 -7.19,-61.61 -21.68,-81.11 -14.43,-19.56 -36.99,-29.31 -67.61,-29.31 -20.74,0 -37.87,4.5 -51.3,13.44 -13.37,8.94 -23.37,21.62 -29.93,38.06 -6.5,16.43 -9.75,36.12 -9.75,58.93z"/>
  <path id="8" class="fil1" d="M2558.4 136.9c34.56,0 59.8,6.75 75.74,20.25 15.87,13.44 23.87,32.75 23.87,57.93 0,11.31 -1.88,22.12 -5.62,32.31 -3.69,10.19 -9.69,19.12 -18,26.87 -8.31,7.75 -19.18,13.87 -32.68,18.31 -13.5,4.44 -29.99,6.69 -49.55,6.69l-32.56 0 0 105.36 -31.12 0 0 -267.7 69.93 0zm-2.94 26.56l-35.87 0 0 109.04 29.12 0c17.06,0 31.31,-1.81 42.74,-5.5 11.44,-3.62 20,-9.56 25.75,-17.81 5.69,-8.25 8.56,-19.18 8.56,-32.87 0,-17.81 -5.69,-31.06 -17,-39.81 -11.37,-8.69 -29.12,-13.06 -53.3,-13.06z"/>
  <polygon id="9" class="fil1" points="2714,404.6 2714,136.9 2745.12,136.9 2745.12,404.6 "/>
  <path id="10" class="fil1" d="M2986.57 404.6l-32.93 -84.74 -107.29 0 -32.75 84.74 -31.49 0 104.73 -267.7 27.99 0 103.98 267.7 -32.25 0zm-42.24 -112.35l-31.31 -83.92c-0.75,-2.19 -1.94,-5.75 -3.56,-10.75 -1.69,-5 -3.38,-10.12 -5.06,-15.5 -1.69,-5.31 -3.12,-9.62 -4.19,-12.87 -1.25,4.94 -2.56,9.87 -3.94,14.81 -1.44,4.94 -2.81,9.44 -4.13,13.62 -1.37,4.19 -2.5,7.75 -3.5,10.69l-31.87 83.92 87.55 0z"/>
  <path id="11" class="fil1" d="M3206.85 333.61c0,15.93 -3.94,29.49 -11.81,40.68 -7.87,11.19 -18.87,19.75 -33.06,25.62 -14.12,5.87 -30.81,8.81 -49.99,8.81 -10.12,0 -19.68,-0.5 -28.74,-1.44 -9,-1 -17.31,-2.44 -24.87,-4.25 -7.56,-1.81 -14.25,-4.06 -19.93,-6.75l0 -29.87c9.12,3.81 20.31,7.31 33.49,10.56 13.19,3.19 26.93,4.81 41.37,4.81 13.44,0 24.75,-1.81 34.06,-5.44 9.25,-3.56 16.31,-8.81 21.12,-15.62 4.81,-6.81 7.25,-14.93 7.25,-24.56 0,-9.12 -2,-16.81 -6.06,-23 -4,-6.19 -10.69,-11.81 -20.06,-16.93 -9.31,-5.06 -22.06,-10.5 -38.12,-16.25 -11.37,-4 -21.37,-8.44 -30.06,-13.31 -8.69,-4.81 -15.93,-10.31 -21.81,-16.44 -5.81,-6.12 -10.25,-13.19 -13.25,-21.25 -3,-8.12 -4.5,-17.37 -4.5,-27.74 0,-14.31 3.63,-26.62 10.94,-36.81 7.25,-10.25 17.31,-18.06 30.18,-23.5 12.87,-5.44 27.68,-8.19 44.37,-8.19 14.31,0 27.49,1.31 39.68,4 12.12,2.69 23.25,6.31 33.37,10.81l-9.69 26.75c-9.62,-4 -19.87,-7.37 -30.68,-10.06 -10.75,-2.69 -21.93,-4.06 -33.37,-4.06 -11.5,0 -21.18,1.69 -29.06,5.06 -7.87,3.37 -13.87,8.12 -18,14.31 -4.19,6.12 -6.25,13.37 -6.25,21.87 0,9.44 2,17.25 5.94,23.49 4,6.25 10.31,11.75 19.06,16.62 8.75,4.81 20.31,9.87 34.68,15.12 15.75,5.75 29.12,11.87 40.12,18.31 11,6.37 19.31,14.25 25.06,23.49 5.75,9.19 8.62,20.93 8.62,35.12z"/>
  <polygon id="12" class="fil2 str0" points="614.68,404.6 614.68,136.9 645.8,136.9 645.8,404.6 "/>
  <path id="13" class="fil2 str0" d="M931.93 268.19c0,30.12 -5.5,55.3 -16.44,75.55 -11,20.18 -26.93,35.37 -47.74,45.55 -20.81,10.19 -45.99,15.31 -75.67,15.31l-72.68 0 0 -267.7 80.74 0c27.18,0 50.62,5 70.3,14.94 19.62,9.94 34.81,24.62 45.49,44.12 10.69,19.5 16,43.56 16,72.24zm-32.74 1.13c0,-24.06 -4,-43.93 -12,-59.55 -8,-15.62 -19.68,-27.24 -35.12,-34.87 -15.5,-7.62 -34.37,-11.43 -56.68,-11.43l-44.87 0 0 214.4 37.87 0c36.87,0 64.55,-9.06 83.05,-27.25 18.5,-18.18 27.74,-45.3 27.74,-81.3z"/>
  <polygon id="14" class="fil2 str0" points="1140.52,404.6 991.48,404.6 991.48,136.9 1140.52,136.9 1140.52,164.33 1022.61,164.33 1022.61,251.13 1133.71,251.13 1133.71,278.25 1022.61,278.25 1022.61,377.1 1140.52,377.1 "/>
  <path id="15" class="fil2 str0" d="M1367.67 404.6l-32.93 -84.74 -107.29 0 -32.74 84.74 -31.49 0 104.73 -267.7 27.99 0 103.98 267.7 -32.25 0zm-42.24 -112.35l-31.31 -83.92c-0.75,-2.19 -1.94,-5.75 -3.56,-10.75 -1.69,-5 -3.38,-10.12 -5.06,-15.5 -1.69,-5.31 -3.12,-9.62 -4.19,-12.87 -1.25,4.94 -2.56,9.87 -3.94,14.81 -1.44,4.94 -2.81,9.44 -4.13,13.62 -1.37,4.19 -2.5,7.75 -3.5,10.69l-31.87 83.92 87.55 0z"/>
  <path id="16" class="fil2 str0" d="M1587.94 333.61c0,15.93 -3.94,29.49 -11.81,40.68 -7.87,11.19 -18.87,19.75 -33.06,25.62 -14.12,5.87 -30.81,8.81 -49.99,8.81 -10.12,0 -19.68,-0.5 -28.74,-1.44 -9,-1 -17.31,-2.44 -24.87,-4.25 -7.56,-1.81 -14.25,-4.06 -19.93,-6.75l0 -29.87c9.12,3.81 20.31,7.31 33.49,10.56 13.19,3.19 26.93,4.81 41.37,4.81 13.44,0 24.75,-1.81 34.06,-5.44 9.25,-3.56 16.31,-8.81 21.12,-15.62 4.81,-6.81 7.25,-14.93 7.25,-24.56 0,-9.12 -2,-16.81 -6.06,-23 -4,-6.19 -10.69,-11.81 -20.06,-16.93 -9.31,-5.06 -22.06,-10.5 -38.12,-16.25 -11.37,-4 -21.37,-8.44 -30.06,-13.31 -8.69,-4.81 -15.93,-10.31 -21.81,-16.44 -5.81,-6.12 -10.25,-13.19 -13.25,-21.25 -3,-8.12 -4.5,-17.37 -4.5,-27.74 0,-14.31 3.63,-26.62 10.94,-36.81 7.25,-10.25 17.31,-18.06 30.18,-23.5 12.87,-5.44 27.68,-8.19 44.37,-8.19 14.31,0 27.49,1.31 39.68,4 12.12,2.69 23.25,6.31 33.37,10.81l-9.69 26.75c-9.62,-4 -19.87,-7.37 -30.68,-10.06 -10.75,-2.69 -21.93,-4.06 -33.37,-4.06 -11.5,0 -21.18,1.69 -29.06,5.06 -7.87,3.37 -13.87,8.12 -18,14.31 -4.19,6.12 -6.25,13.37 -6.25,21.87 0,9.44 2,17.25 5.94,23.49 4,6.25 10.31,11.75 19.06,16.62 8.75,4.81 20.31,9.87 34.68,15.12 15.75,5.75 29.12,11.87 40.12,18.31 11,6.37 19.31,14.25 25.06,23.49 5.75,9.19 8.62,20.93 8.62,35.12z"/>
  <path id="17" class="fil2 str0" d="M1809.84 136.9c34.56,0 59.8,6.75 75.74,20.25 15.87,13.44 23.87,32.75 23.87,57.93 0,11.31 -1.88,22.12 -5.62,32.31 -3.69,10.19 -9.69,19.12 -18,26.87 -8.31,7.75 -19.18,13.87 -32.68,18.31 -13.5,4.44 -29.99,6.69 -49.55,6.69l-32.56 0 0 105.36 -31.12 0 0 -267.7 69.93 0zm-2.94 26.56l-35.87 0 0 109.04 29.12 0c17.06,0 31.31,-1.81 42.74,-5.5 11.44,-3.62 20,-9.56 25.75,-17.81 5.69,-8.25 8.56,-19.18 8.56,-32.87 0,-17.81 -5.69,-31.06 -17,-39.81 -11.37,-8.69 -29.12,-13.06 -53.3,-13.06z"/>
  <path id="18" class="fil2 str0" d="M2037.74 136.9c22,0 40.12,2.69 54.49,8.12 14.31,5.44 25.06,13.75 32.12,24.81 7.06,11.12 10.62,25.31 10.62,42.49 0,14.12 -2.56,25.93 -7.69,35.43 -5.12,9.44 -11.87,17.12 -20.12,23 -8.31,5.81 -17.19,10.37 -26.56,13.5l73.42 120.35 -36.31 0 -65.49 -111.73 -55.68 0 0 111.73 -31.12 0 0 -267.7 72.3 0zm-1.81 26.93l-39.37 0 0 102.67 42.49 0c21.81,0 37.93,-4.44 48.24,-13.37 10.31,-8.87 15.43,-22 15.43,-39.37 0,-18.18 -5.44,-31.06 -16.37,-38.62 -10.93,-7.56 -27.75,-11.31 -50.43,-11.31z"/>
  <path id="19" class="fil2 str0" d="M2428.98 270.62c0,20.68 -2.63,39.49 -7.87,56.43 -5.25,16.93 -13.06,31.43 -23.37,43.62 -10.31,12.19 -23.06,21.56 -38.31,28.18 -15.31,6.56 -32.99,9.87 -53.11,9.87 -20.75,0 -38.87,-3.31 -54.3,-9.87 -15.44,-6.62 -28.25,-16.06 -38.43,-28.25 -10.18,-12.25 -17.81,-26.87 -22.87,-43.87 -5.06,-17 -7.62,-35.81 -7.62,-56.43 0,-27.43 4.5,-51.43 13.56,-72.05 9.06,-20.68 22.75,-36.74 41.12,-48.24 18.37,-11.5 41.37,-17.25 69.11,-17.25 26.5,0 48.74,5.69 66.93,17.06 18.12,11.37 31.81,27.37 41.18,47.93 9.31,20.62 14,44.93 14,72.86zm-213.09 0c0,22.75 3.19,42.49 9.69,59.12 6.44,16.62 16.37,29.43 29.74,38.49 13.37,9.06 30.37,13.56 50.99,13.56 20.74,0 37.74,-4.5 50.99,-13.56 13.25,-9.06 22.99,-21.87 29.37,-38.49 6.38,-16.62 9.5,-36.37 9.5,-59.12 0,-34.56 -7.19,-61.61 -21.68,-81.11 -14.43,-19.56 -36.99,-29.31 -67.61,-29.31 -20.74,0 -37.87,4.5 -51.3,13.44 -13.37,8.94 -23.37,21.62 -29.93,38.06 -6.5,16.43 -9.75,36.12 -9.75,58.93z"/>
  <path id="20" class="fil2 str0" d="M2558.4 136.9c34.56,0 59.8,6.75 75.74,20.25 15.87,13.44 23.87,32.75 23.87,57.93 0,11.31 -1.88,22.12 -5.62,32.31 -3.69,10.19 -9.69,19.12 -18,26.87 -8.31,7.75 -19.18,13.87 -32.68,18.31 -13.5,4.44 -29.99,6.69 -49.55,6.69l-32.56 0 0 105.36 -31.12 0 0 -267.7 69.93 0zm-2.94 26.56l-35.87 0 0 109.04 29.12 0c17.06,0 31.31,-1.81 42.74,-5.5 11.44,-3.62 20,-9.56 25.75,-17.81 5.69,-8.25 8.56,-19.18 8.56,-32.87 0,-17.81 -5.69,-31.06 -17,-39.81 -11.37,-8.69 -29.12,-13.06 -53.3,-13.06z"/>
  <polygon id="21" class="fil2 str0" points="2714,404.6 2714,136.9 2745.12,136.9 2745.12,404.6 "/>
  <path id="22" class="fil2 str0" d="M2986.57 404.6l-32.93 -84.74 -107.29 0 -32.75 84.74 -31.49 0 104.73 -267.7 27.99 0 103.98 267.7 -32.25 0zm-42.24 -112.35l-31.31 -83.92c-0.75,-2.19 -1.94,-5.75 -3.56,-10.75 -1.69,-5 -3.38,-10.12 -5.06,-15.5 -1.69,-5.31 -3.12,-9.62 -4.19,-12.87 -1.25,4.94 -2.56,9.87 -3.94,14.81 -1.44,4.94 -2.81,9.44 -4.13,13.62 -1.37,4.19 -2.5,7.75 -3.5,10.69l-31.87 83.92 87.55 0z"/>
  <path id="23" class="fil2 str0" d="M3206.85 333.61c0,15.93 -3.94,29.49 -11.81,40.68 -7.87,11.19 -18.87,19.75 -33.06,25.62 -14.12,5.87 -30.81,8.81 -49.99,8.81 -10.12,0 -19.68,-0.5 -28.74,-1.44 -9,-1 -17.31,-2.44 -24.87,-4.25 -7.56,-1.81 -14.25,-4.06 -19.93,-6.75l0 -29.87c9.12,3.81 20.31,7.31 33.49,10.56 13.19,3.19 26.93,4.81 41.37,4.81 13.44,0 24.75,-1.81 34.06,-5.44 9.25,-3.56 16.31,-8.81 21.12,-15.62 4.81,-6.81 7.25,-14.93 7.25,-24.56 0,-9.12 -2,-16.81 -6.06,-23 -4,-6.19 -10.69,-11.81 -20.06,-16.93 -9.31,-5.06 -22.06,-10.5 -38.12,-16.25 -11.37,-4 -21.37,-8.44 -30.06,-13.31 -8.69,-4.81 -15.93,-10.31 -21.81,-16.44 -5.81,-6.12 -10.25,-13.19 -13.25,-21.25 -3,-8.12 -4.5,-17.37 -4.5,-27.74 0,-14.31 3.63,-26.62 10.94,-36.81 7.25,-10.25 17.31,-18.06 30.18,-23.5 12.87,-5.44 27.68,-8.19 44.37,-8.19 14.31,0 27.49,1.31 39.68,4 12.12,2.69 23.25,6.31 33.37,10.81l-9.69 26.75c-9.62,-4 -19.87,-7.37 -30.68,-10.06 -10.75,-2.69 -21.93,-4.06 -33.37,-4.06 -11.5,0 -21.18,1.69 -29.06,5.06 -7.87,3.37 -13.87,8.12 -18,14.31 -4.19,6.12 -6.25,13.37 -6.25,21.87 0,9.44 2,17.25 5.94,23.49 4,6.25 10.31,11.75 19.06,16.62 8.75,4.81 20.31,9.87 34.68,15.12 15.75,5.75 29.12,11.87 40.12,18.31 11,6.37 19.31,14.25 25.06,23.49 5.75,9.19 8.62,20.93 8.62,35.12z"/>
  <line class="fil3 str1" x1="482.16" y1="47.31" x2="482.16" y2= "494.19" />
 </g>
</svg>
