<?xml version="1.0" encoding="UTF-8"?>
<!DOCTYPE svg PUBLIC "-//W3C//DTD SVG 1.1//EN" "http://www.w3.org/Graphics/SVG/1.1/DTD/svg11.dtd">
<!-- Creator: CorelDRAW 2019 (64-Bit Versión de evaluación) -->
<svg xmlns="http://www.w3.org/2000/svg" xml:space="preserve" width="20%" height="20%" version="1.1" style="shape-rendering:geometricPrecision; text-rendering:geometricPrecision; image-rendering:optimizeQuality; fill-rule:evenodd; clip-rule:evenodd"
viewBox="0 0 693.24 690.32"
 xmlns:xlink="http://www.w3.org/1999/xlink"
 xmlns:xodm="http://www.corel.com/coreldraw/odm/2003">
 <defs>
  <style type="text/css">
   <![CDATA[
    .fil7 {fill:url(#id0)}
    .fil3 {fill:url(#id1)}
    .fil5 {fill:url(#id2)}
    .fil6 {fill:url(#id3)}
    .fil10 {fill:url(#id4)}
    .fil8 {fill:url(#id5)}
    .fil0 {fill:url(#id6)}
    .fil9 {fill:url(#id7)}
    .fil4 {fill:url(#id8)}
    .fil2 {fill:url(#id9)}
    .fil1 {fill:url(#id10)}
   ]]>
  </style>
  <linearGradient id="id0" gradientUnits="userSpaceOnUse" x1="619.08" y1="313.45" x2="654.53" y2="379.79">
   <stop offset="0" style="stop-opacity:1; stop-color:#00A5E0"/>
   <stop offset="1" style="stop-opacity:1; stop-color:#476DA5"/>
  </linearGradient>
  <linearGradient id="id1" gradientUnits="userSpaceOnUse" xlink:href="#id0" x1="104.54" y1="134.11" x2="178.32" y2="148.76">
  </linearGradient>
  <linearGradient id="id2" gradientUnits="userSpaceOnUse" xlink:href="#id0" x1="104.54" y1="544.49" x2="178.32" y2="559.14">
  </linearGradient>
  <linearGradient id="id3" gradientUnits="userSpaceOnUse" xlink:href="#id0" x1="514.92" y1="134.11" x2="588.7" y2="148.75">
  </linearGradient>
  <linearGradient id="id4" gradientUnits="userSpaceOnUse" xlink:href="#id0" x1="230.36" y1="240.57" x2="513.89" y2="473.94">
  </linearGradient>
  <linearGradient id="id5" gradientUnits="userSpaceOnUse" xlink:href="#id0" x1="514.92" y1="544.49" x2="588.71" y2="559.14">
  </linearGradient>
  <linearGradient id="id6" gradientUnits="userSpaceOnUse" xlink:href="#id0" x1="303.27" y1="303.27" x2="389.97" y2="389.97">
  </linearGradient>
  <linearGradient id="id7" gradientUnits="userSpaceOnUse" xlink:href="#id0" x1="325.18" y1="563.26" x2="368.07" y2="630.74">
  </linearGradient>
  <linearGradient id="id8" gradientUnits="userSpaceOnUse" xlink:href="#id0" x1="38.72" y1="313.45" x2="74.16" y2="379.8">
  </linearGradient>
  <linearGradient id="id9" gradientUnits="userSpaceOnUse" xlink:href="#id0" x1="313.45" y1="38.72" x2="379.79" y2="74.16">
  </linearGradient>
  <linearGradient id="id10" gradientUnits="userSpaceOnUse" xlink:href="#id0" x1="332.47" y1="635.6" x2="360.75" y2="694.04">
  </linearGradient>
 </defs>
 <g id="Capa_x0020_1">
  <metadata id="CorelCorpID_0Corel-Layer"/>
  <g id="_2774734157872">
   <path class="fil0" d="M346.62 285.31c33.86,0 61.31,27.45 61.31,61.31 0,33.86 -27.45,61.31 -61.31,61.31 -33.86,0 -61.31,-27.45 -61.31,-61.31 0,-33.86 27.45,-61.31 61.31,-61.31z"/>
   <path class="fil1" d="M399.31 639.32c-0.58,31.33 -29.59,51.39 -55.29,50.99 -23.87,-0.36 -46.71,-11.95 -50.09,-29.88l105.38 -21.11z"/>
   <path class="fil2" d="M346.62 112.88l0 0c16.59,0 30.15,-13.57 30.15,-30.15l0 -52.57c0,-16.58 -13.57,-30.15 -30.15,-30.15l0 0c-16.58,0 -30.15,13.57 -30.15,30.15l0 52.57c0,16.58 13.57,30.15 30.15,30.15z"/>
   <path class="fil3" d="M181.34 181.34l0 0c11.73,-11.73 11.73,-30.92 0,-42.64l-37.17 -37.18c-11.73,-11.73 -30.91,-11.73 -42.64,0l0 0c-11.73,11.73 -11.73,30.91 0,42.64l37.18 37.17c11.73,11.73 30.91,11.73 42.64,0z"/>
   <path class="fil4" d="M112.88 346.63l0 0c0,-16.59 -13.57,-30.15 -30.15,-30.15l-52.57 0c-16.58,0 -30.15,13.57 -30.15,30.15l0 0c0,16.58 13.57,30.15 30.15,30.15l52.57 0c16.59,0 30.15,-13.57 30.15,-30.15z"/>
   <path class="fil5" d="M181.34 511.91l0 0c-11.73,-11.73 -30.92,-11.73 -42.64,-0l-37.18 37.18c-11.73,11.73 -11.73,30.91 0,42.64l0 0c11.73,11.73 30.91,11.73 42.64,-0l37.17 -37.17c11.73,-11.73 11.73,-30.91 0,-42.64z"/>
   <path class="fil6" d="M511.9 181.34l0 0c11.73,11.73 30.92,11.73 42.64,0l37.17 -37.17c11.73,-11.73 11.73,-30.91 0,-42.64l0 0c-11.73,-11.73 -30.91,-11.73 -42.64,0l-37.18 37.18c-11.73,11.73 -11.73,30.91 0,42.64z"/>
   <path class="fil7" d="M580.37 346.62l0 0c0,16.59 13.57,30.15 30.15,30.15l52.57 0c16.58,0 30.15,-13.57 30.15,-30.15l0 0c0,-16.58 -13.57,-30.15 -30.15,-30.15l-52.57 0c-16.58,0 -30.15,13.57 -30.15,30.15z"/>
   <path class="fil8" d="M511.91 511.9l0 0c-11.73,11.73 -11.73,30.92 -0,42.64l37.18 37.17c11.73,11.73 30.91,11.73 42.64,0l0 0c11.73,-11.73 11.72,-30.91 -0,-42.64l-37.17 -37.17c-11.73,-11.73 -30.91,-11.73 -42.64,-0z"/>
   <polygon class="fil9" points="293.92,584.62 399.32,563.51 399.32,609.39 293.92,630.5 "/>
   <path class="fil10" d="M383.12 537.05c37.96,-7.16 72.63,-25.69 100.44,-53.49 36.44,-36.44 56.73,-85.39 56.73,-136.93 0,-51.55 -20.28,-100.49 -56.73,-136.94 -36.44,-36.44 -85.39,-56.73 -136.94,-56.73 -33.97,0 -67.27,9.09 -96.66,26.06l-2.8 1.62 -0.11 0c-11.66,6.99 -22.58,15.21 -32.52,24.49 -1.4,1.31 -2.79,2.64 -4.15,4 -6.97,6.91 -9.22,12.13 -1.79,19.58 8.44,8.47 16.88,16.93 25.29,25.42 1.04,1.05 2.34,2.12 3.87,2.28 6.27,0.66 21.13,-10.88 26.1,-14.44 24.39,-17.5 52.44,-28.66 82.78,-28.66 35.47,0 69.2,13.97 94.27,39.05 25.08,25.07 39.05,58.8 39.05,94.27 0,35.47 -13.97,69.2 -39.05,94.27 -12.17,12.17 -26.38,21.72 -41.83,28.33 -3.65,-16.07 -18.1,-28.16 -35.24,-28.16l-34.41 0c-19.87,0 -36.13,16.26 -36.13,36.13l0 15.19 -4.65 0.93c-15.81,5.03 -26.99,14.96 -28.32,35.32l0 32.92 122.8 -24.5z"/>
  </g>
 </g>
</svg>
