<?xml version="1.0" encoding="UTF-8"?>
<!DOCTYPE svg PUBLIC "-//W3C//DTD SVG 1.1//EN" "http://www.w3.org/Graphics/SVG/1.1/DTD/svg11.dtd">
<!-- Creator: CorelDRAW 2019 (64-Bit Versión de evaluación) -->
<svg xmlns="http://www.w3.org/2000/svg" xml:space="preserve" width="15%" height="15%" version="1.1" style="shape-rendering:geometricPrecision; text-rendering:geometricPrecision; image-rendering:optimizeQuality; fill-rule:evenodd; clip-rule:evenodd"
viewBox="0 0 550.06 898.56"
 xmlns:xlink="http://www.w3.org/1999/xlink"
 xmlns:xodm="http://www.corel.com/coreldraw/odm/2003">
 <defs>
  <style type="text/css">
   <![CDATA[
    .fil0 {fill:#534E4A}
    .fil1 {fill:#534E4A;fill-rule:nonzero}
   ]]>
  </style>
 </defs>
 <g id="Capa_x0020_1">
  <metadata id="CorelCorpID_0Corel-Layer"/>
  <g id="_2774777489056">
   <g>
    <path class="fil0" d="M271.14 213.99c25.39,0 45.98,20.59 45.98,45.98 0,25.39 -20.59,45.98 -45.98,45.98 -25.39,0 -45.98,-20.59 -45.98,-45.98 0,-25.39 20.59,-45.98 45.98,-45.98z"/>
    <path class="fil0" d="M310.66 479.49c-0.43,23.5 -22.2,38.54 -41.47,38.25 -17.91,-0.27 -35.03,-8.96 -37.57,-22.41l79.04 -15.83z"/>
    <path class="fil0" d="M271.14 84.66l0 0c12.44,0 22.62,-10.18 22.62,-22.61l0 -39.43c0,-12.44 -10.18,-22.61 -22.62,-22.61l0 0c-12.44,0 -22.61,10.18 -22.61,22.61l0 39.43c0,12.44 10.18,22.61 22.61,22.61z"/>
    <path class="fil0" d="M147.18 136.01l0 0c8.8,-8.8 8.79,-23.19 0,-31.98l-27.88 -27.88c-8.79,-8.79 -23.19,-8.79 -31.98,0l0 0c-8.79,8.79 -8.79,23.19 0,31.98l27.88 27.88c8.79,8.79 23.19,8.8 31.98,0z"/>
    <path class="fil0" d="M95.83 259.97l0 0c0,-12.44 -10.17,-22.62 -22.61,-22.62l-39.43 0c-12.44,0 -22.61,10.18 -22.61,22.62l0 0c0,12.44 10.18,22.61 22.61,22.61l39.43 0c12.44,0 22.61,-10.18 22.61,-22.61z"/>
    <path class="fil0" d="M147.18 383.93l0 0c-8.8,-8.8 -23.19,-8.8 -31.98,-0l-27.88 27.88c-8.79,8.79 -8.79,23.19 0,31.98l0 0c8.79,8.79 23.19,8.79 31.98,-0l27.88 -27.88c8.79,-8.79 8.8,-23.19 0,-31.98z"/>
    <path class="fil0" d="M395.1 136l0 0c8.8,8.8 23.19,8.8 31.98,0l27.88 -27.88c8.8,-8.79 8.8,-23.19 0,-31.98l0 0c-8.79,-8.79 -23.19,-8.79 -31.98,0l-27.88 27.88c-8.79,8.79 -8.79,23.19 0,31.98z"/>
    <path class="fil0" d="M446.45 259.97l0 0c0,12.44 10.18,22.62 22.61,22.62l39.43 0c12.44,0 22.61,-10.18 22.61,-22.62l0 0c0,-12.44 -10.18,-22.61 -22.61,-22.61l-39.43 0c-12.44,0 -22.61,10.18 -22.61,22.61z"/>
    <path class="fil0" d="M395.11 383.93l0 0c-8.8,8.8 -8.8,23.19 -0,31.98l27.88 27.88c8.79,8.8 23.19,8.8 31.98,0l0 0c8.79,-8.79 8.79,-23.19 -0,-31.98l-27.88 -27.88c-8.79,-8.8 -23.19,-8.8 -31.98,-0z"/>
    <polygon class="fil0" points="231.62,438.47 310.67,422.63 310.67,457.04 231.62,472.87 "/>
    <path class="fil0" d="M298.52 402.79c28.47,-5.37 54.47,-19.26 75.33,-40.12 27.33,-27.33 42.54,-64.04 42.54,-102.7 0,-38.66 -15.21,-75.37 -42.54,-102.7 -27.33,-27.33 -64.04,-42.54 -102.7,-42.54 -25.48,0 -50.45,6.82 -72.5,19.55l-2.1 1.21 -0.08 0c-8.75,5.24 -16.93,11.41 -24.39,18.37 -1.05,0.98 -2.09,1.98 -3.11,3 -5.23,5.18 -6.91,9.09 -1.35,14.68 6.33,6.35 12.66,12.7 18.97,19.07 0.78,0.78 1.76,1.59 2.9,1.71 4.7,0.5 15.85,-8.16 19.57,-10.83 18.29,-13.12 39.33,-21.49 62.09,-21.49 26.6,0 51.9,10.48 70.71,29.28 18.81,18.81 29.28,44.1 29.28,70.7 0,26.6 -10.48,51.9 -29.28,70.7 -9.13,9.13 -19.78,16.29 -31.37,21.25 -2.74,-12.05 -13.58,-21.12 -26.43,-21.12l-25.81 0c-14.9,0 -27.1,12.19 -27.1,27.1l0 11.39 -3.49 0.7c-11.85,3.77 -20.24,11.22 -21.24,26.49l0 24.69 92.1 -18.38z"/>
   </g>
   <path class="fil0" d="M12.37 771.92l-9.11 0 0 126.63 10.33 0 0 -58.05 1.44 2.36c3.57,5.88 8.26,10.71 14,14.51 6,3.98 12.73,5.72 19.92,5.72 5.71,0 11.21,-1.14 16.34,-3.67 4.97,-2.46 9.26,-5.81 12.85,-10.02 3.72,-4.37 6.45,-9.36 8.33,-14.77 2.01,-5.78 2.93,-11.8 2.93,-17.91 0,-5.97 -1.07,-11.78 -3.18,-17.37 -2.06,-5.46 -4.99,-10.48 -8.85,-14.87 -3.78,-4.3 -8.26,-7.74 -13.39,-10.3 -5.31,-2.65 -11.02,-3.85 -16.94,-3.85 -6.81,0 -13.15,1.72 -18.99,5.22 -5.78,3.46 -10.56,8 -14.24,13.64l-1.42 2.18 0 -19.47zm33.25 82.25c-3.45,0 -6.81,-0.6 -10.05,-1.79 -3.23,-1.2 -6.25,-2.85 -9.01,-4.91 -2.83,-2.11 -5.33,-4.6 -7.49,-7.4 -2.19,-2.85 -4.01,-5.94 -5.43,-9.25l-0.06 -0.15 0 -28.16 0.01 -0.06c0.51,-3.32 1.9,-6.31 3.9,-8.99 2.11,-2.83 4.63,-5.28 7.51,-7.33 2.91,-2.08 6.08,-3.75 9.44,-4.99 3.13,-1.15 6.43,-1.88 9.79,-1.88 4.78,0 9.38,0.98 13.69,3.04 4.2,2.01 7.88,4.75 10.98,8.21 3.15,3.52 5.57,7.54 7.3,11.93 1.8,4.57 2.67,9.35 2.67,14.26 0,4.72 -0.77,9.33 -2.31,13.79 -1.51,4.37 -3.73,8.38 -6.68,11.94 -2.93,3.53 -6.47,6.36 -10.54,8.49 -4.28,2.23 -8.9,3.23 -13.72,3.23zm104.79 -73.29l0 -9.42c-0.5,-0.05 -1.01,-0.06 -1.5,-0.06 -6.57,0 -12.51,2.06 -17.89,5.8 -5.91,4.1 -10.25,9.67 -13.37,16.12l-1.47 3.04 0 -24.44 -9.63 0 0 89.44 10.33 0 0 -55.93 0.04 -0.12c2.42,-7.25 6.61,-13.26 12.86,-17.68 6.16,-4.34 13.16,-6.42 20.63,-6.75zm46.44 82.22c6.21,0 12.26,-1.12 17.93,-3.69 5.34,-2.42 10.07,-5.75 14.07,-10.04 4.02,-4.31 7.06,-9.28 9.19,-14.77 2.2,-5.68 3.27,-11.62 3.27,-17.71 0,-6.15 -1.07,-12.16 -3.35,-17.88 -2.18,-5.48 -5.25,-10.46 -9.28,-14.78 -4.01,-4.3 -8.75,-7.66 -14.08,-10.13 -5.61,-2.59 -11.58,-3.77 -17.75,-3.77 -6.14,0 -12.09,1.16 -17.66,3.77 -5.3,2.48 -10,5.85 -13.99,10.13 -4.03,4.32 -7.1,9.29 -9.28,14.78 -2.28,5.72 -3.35,11.72 -3.35,17.88 0,6.09 1.06,12.03 3.27,17.71 2.13,5.49 5.17,10.46 9.19,14.77 3.98,4.27 8.68,7.61 13.99,10.04 5.63,2.58 11.66,3.68 17.84,3.68zm-33.78 -46.03c0,-5.04 0.84,-9.98 2.67,-14.69 1.72,-4.42 4.13,-8.48 7.3,-12.02 3.04,-3.39 6.62,-6.13 10.72,-8.13 4.12,-2 8.51,-2.96 13.09,-2.96 4.6,0 9.01,0.97 13.17,2.96 4.12,1.97 7.73,4.66 10.8,8.03 3.19,3.5 5.59,7.54 7.31,11.94 1.81,4.65 2.67,9.52 2.67,14.51 0,5.01 -0.83,9.93 -2.67,14.6 -1.73,4.37 -4.14,8.38 -7.31,11.85 -3.08,3.37 -6.69,6.07 -10.8,8.03 -4.15,1.99 -8.57,2.96 -13.17,2.96 -4.59,0 -9,-0.94 -13.16,-2.87 -4.12,-1.91 -7.7,-4.57 -10.73,-7.96 -3.1,-3.47 -5.49,-7.44 -7.21,-11.76 -1.86,-4.64 -2.68,-9.53 -2.68,-14.52zm104.34 -45.15l-9.1 0 0 126.63 10.33 0 0 -58.05 1.44 2.36c3.57,5.88 8.27,10.71 14,14.51 6,3.98 12.73,5.72 19.92,5.72 5.71,0 11.21,-1.14 16.34,-3.67 4.97,-2.46 9.26,-5.81 12.85,-10.02 3.72,-4.37 6.45,-9.36 8.33,-14.77 2.01,-5.78 2.93,-11.8 2.93,-17.91 0,-5.97 -1.07,-11.78 -3.18,-17.37 -2.06,-5.46 -4.99,-10.48 -8.85,-14.87 -3.78,-4.3 -8.26,-7.74 -13.39,-10.3 -5.31,-2.65 -11.02,-3.85 -16.94,-3.85 -6.81,0 -13.14,1.72 -18.99,5.22 -5.79,3.46 -10.56,8 -14.24,13.64l-1.42 2.18 0 -19.47zm33.26 82.25c-3.45,0 -6.81,-0.6 -10.05,-1.79 -3.23,-1.2 -6.25,-2.85 -9.01,-4.91 -2.83,-2.11 -5.33,-4.6 -7.49,-7.4 -2.2,-2.85 -4.01,-5.94 -5.43,-9.25l-0.06 -0.15 0 -28.16 0.01 -0.06c0.51,-3.32 1.9,-6.31 3.9,-8.99 2.11,-2.83 4.63,-5.28 7.51,-7.33 2.91,-2.08 6.08,-3.75 9.44,-4.99 3.13,-1.15 6.43,-1.88 9.78,-1.88 4.78,0 9.38,0.98 13.69,3.04 4.2,2.01 7.88,4.75 10.98,8.21 3.15,3.52 5.57,7.54 7.3,11.93 1.8,4.57 2.67,9.35 2.67,14.26 0,4.72 -0.77,9.33 -2.31,13.79 -1.51,4.37 -3.73,8.38 -6.68,11.94 -2.93,3.53 -6.47,6.36 -10.54,8.49 -4.28,2.23 -8.9,3.23 -13.72,3.23zm60.93 7.18l10.33 0 0 -89.44 -10.33 0 0 89.44zm105.94 0.12l0 -9.09c-3.03,-0.31 -4.37,-2.47 -4.37,-5.63l0 -41.04c0,-9.74 -2.45,-19.02 -9.55,-25.99 -7.13,-7 -16.57,-9.38 -26.35,-9.38 -12.05,0 -23.31,4.79 -33.21,11.36l3.45 6.47c4.46,-3.05 9.24,-5.7 14.29,-7.63 4.68,-1.78 9.58,-2.84 14.6,-2.84 7.32,0 14.24,1.93 19.42,7.31 5.17,5.37 7.03,12.34 7.03,19.66l0 9.36 -1.07 -0.43c-4.03,-1.63 -8.31,-2.72 -12.59,-3.45 -4.63,-0.79 -9.32,-1.21 -14.02,-1.21 -5.1,0 -10.24,0.56 -15.15,1.98 -4.2,1.21 -8.26,2.99 -11.81,5.56 -3.14,2.28 -5.76,5.07 -7.63,8.48 -1.82,3.3 -2.7,6.86 -2.7,10.63 0,3.73 0.7,7.36 2.2,10.78 1.47,3.33 3.54,6.25 6.2,8.74 2.73,2.55 5.89,4.49 9.36,5.87 3.73,1.48 7.67,2.13 11.68,2.13 7.02,0 13.81,-1.36 20.2,-4.29 6.18,-2.84 11.37,-6.94 15.51,-12.34l1.29 -1.68 0.45 9.27c0.11,2.21 0.77,4.24 2.45,5.75 1.79,1.61 4.22,2.07 6.56,2.07 1.2,0 2.54,-0.19 3.77,-0.4zm-18.01 -18.93c-3.02,4.3 -7.31,7.33 -12.07,9.46 -5.49,2.47 -11.34,3.56 -17.34,3.56 -3.04,0 -6.01,-0.52 -8.84,-1.63 -2.65,-1.04 -5.07,-2.49 -7.15,-4.44 -2.01,-1.89 -3.58,-4.11 -4.72,-6.62 -1.17,-2.59 -1.73,-5.34 -1.73,-8.18 0,-6.28 3.04,-11 8.2,-14.44 6.13,-4.08 13.62,-5.37 20.86,-5.37 4.42,0 8.82,0.4 13.16,1.24 4.24,0.81 8.41,1.99 12.44,3.53l0.5 0.19 0 15.38c0,1.28 -0.35,2.54 -0.85,3.71 -0.58,1.36 -1.44,2.55 -2.47,3.6zm92.87 -54.74l4.78 -5.79c-3.66,-3.72 -8.21,-6.39 -13.05,-8.31 -5.97,-2.38 -12.34,-3.35 -18.75,-3.35 -4.39,0 -8.75,0.53 -12.98,1.72 -3.79,1.07 -7.4,2.69 -10.58,5.03 -3.02,2.23 -5.38,5.04 -7.11,8.38 -1.88,3.63 -2.62,7.63 -2.62,11.69 0,2.92 0.4,6.02 1.75,8.64 1.23,2.39 3.08,4.27 5.32,5.73 2.84,1.85 6.13,3.21 9.34,4.28 4.45,1.48 8.99,2.74 13.56,3.82 4.01,0.96 8.04,1.93 12,3.07 2.97,0.86 6.02,1.95 8.72,3.48 2.09,1.18 4.04,2.7 5.41,4.69 1.39,2.01 1.88,4.4 1.88,6.81 0,5.62 -2.22,10.13 -6.89,13.3 -5.22,3.55 -11.79,4.59 -17.99,4.59 -5.95,0 -11.77,-1.01 -17.31,-3.2 -5.5,-2.18 -10.56,-5.33 -15.18,-9.02l-4.56 6.77c4.89,4.29 10.54,7.4 16.69,9.52 6.64,2.29 13.51,3.45 20.53,3.45 8.89,0 18.15,-1.66 25.38,-7.18 6.35,-4.85 9.3,-11.33 9.3,-19.29 0,-3.25 -0.55,-6.54 -2.17,-9.4 -1.55,-2.74 -3.81,-4.87 -6.46,-6.54 -3.34,-2.1 -7.16,-3.62 -10.91,-4.81 -5.04,-1.59 -10.16,-2.97 -15.31,-4.18 -3.49,-0.82 -7.01,-1.67 -10.44,-2.72 -2.47,-0.76 -5.01,-1.72 -7.24,-3.04 -1.75,-1.04 -3.32,-2.41 -4.3,-4.23 -1.02,-1.89 -1.31,-4.18 -1.31,-6.3 0,-2.77 0.51,-5.51 1.84,-7.96 1.23,-2.27 2.92,-4.14 5.05,-5.6 2.22,-1.52 4.71,-2.54 7.33,-3.17 2.91,-0.7 5.92,-0.98 8.91,-0.98 5.27,0 10.42,0.87 15.37,2.67 4.52,1.63 8.57,4.08 11.99,7.43z"/>
   <path class="fil1" d="M2.21 726.75l0 -114.71 35.86 0 0 114.71 -35.86 0zm17.87 -167.62c11.09,0 20.07,8.99 20.07,20.07 0,11.08 -8.99,20.07 -20.07,20.07 -11.09,0 -20.07,-8.99 -20.07,-20.07 0,-11.09 8.99,-20.07 20.07,-20.07zm86.29 169.86c-8.07,0 -15.5,-1.53 -22.3,-4.59 -6.8,-3.06 -12.66,-7.36 -17.6,-12.89 -4.93,-5.53 -8.78,-11.99 -11.54,-19.39 -2.76,-7.4 -4.15,-15.5 -4.15,-24.32 0,-8.52 1.27,-16.51 3.81,-23.98 2.54,-7.47 6.13,-13.94 10.76,-19.39 4.63,-5.45 10.12,-9.75 16.47,-12.89 6.35,-3.14 13.34,-4.71 20.96,-4.71 8.22,0 15.65,1.94 22.3,5.83 6.65,3.88 11.77,9.11 15.35,15.69l0 -65.22 35.86 0 0 123.28c0,3.59 0.56,6.09 1.68,7.51 1.12,1.42 3.1,2.28 5.94,2.58l0 30.26c-3.29,0.75 -6.13,1.23 -8.52,1.46 -2.39,0.22 -4.63,0.34 -6.72,0.34 -6.28,0 -11.36,-1.31 -15.24,-3.92 -3.88,-2.62 -6.13,-6.39 -6.72,-11.32l-0.67 -6.05c-4.18,7.32 -9.82,12.78 -16.92,16.36 -7.1,3.59 -14.68,5.38 -22.75,5.38zm9.64 -30.26c4.93,0 9.68,-1.46 14.23,-4.37 4.56,-2.91 8.03,-6.91 10.42,-11.99l0 -24.66c-2.24,-5.98 -5.86,-10.87 -10.87,-14.68 -5.01,-3.81 -10.2,-5.72 -15.58,-5.72 -3.88,0 -7.43,0.86 -10.65,2.58 -3.21,1.72 -6.01,4 -8.4,6.84 -2.39,2.84 -4.22,6.13 -5.49,9.86 -1.27,3.74 -1.9,7.7 -1.9,11.88 0,4.34 0.71,8.37 2.13,12.11 1.42,3.74 3.36,6.95 5.83,9.64 2.47,2.69 5.45,4.78 8.97,6.28 3.51,1.49 7.28,2.24 11.32,2.24zm139.12 30.26c-9.86,0 -18.71,-1.61 -26.56,-4.82 -7.85,-3.21 -14.49,-7.59 -19.95,-13.11 -5.45,-5.53 -9.6,-11.92 -12.44,-19.17 -2.84,-7.25 -4.26,-14.83 -4.26,-22.75 0,-8.52 1.42,-16.55 4.26,-24.09 2.84,-7.55 6.95,-14.16 12.33,-19.84 5.38,-5.68 11.99,-10.16 19.84,-13.45 7.85,-3.29 16.77,-4.93 26.78,-4.93 10.01,0 18.9,1.64 26.67,4.93 7.77,3.29 14.35,7.73 19.73,13.34 5.38,5.6 9.45,12.07 12.22,19.39 2.76,7.32 4.15,15.02 4.15,23.09 0,2.09 -0.07,4.15 -0.23,6.16 -0.15,2.02 -0.37,3.77 -0.67,5.27l-86.97 0c0.6,7.92 3.47,13.93 8.63,18.04 5.15,4.11 11.02,6.17 17.59,6.17 5.23,0 10.27,-1.27 15.13,-3.81 4.86,-2.54 8.11,-5.98 9.75,-10.31l30.48 8.52c-4.63,9.27 -11.8,16.81 -21.52,22.64 -9.71,5.83 -21.37,8.74 -34.97,8.74zm24.88 -72.17c-0.75,-7.47 -3.44,-13.37 -8.07,-17.71 -4.63,-4.34 -10.39,-6.5 -17.26,-6.5 -7.02,0 -12.81,2.2 -17.37,6.61 -4.56,4.41 -7.21,10.27 -7.96,17.6l50.65 0zm82.42 72.17c-5.83,0 -11.24,-0.93 -16.25,-2.8 -5,-1.87 -9.3,-4.48 -12.89,-7.85 -3.59,-3.36 -6.42,-7.32 -8.52,-11.88 -2.09,-4.56 -3.14,-9.53 -3.14,-14.91 0,-5.83 1.23,-11.13 3.7,-15.91 2.47,-4.78 5.94,-8.89 10.42,-12.33 4.48,-3.44 9.79,-6.12 15.91,-8.07 6.13,-1.94 12.93,-2.91 20.4,-2.91 4.93,0 9.71,0.41 14.35,1.23 4.63,0.82 8.67,2.05 12.1,3.7l0 -5.38c0,-13.6 -7.84,-20.4 -23.53,-20.4 -6.43,0 -12.55,1.08 -18.38,3.25 -5.83,2.17 -11.96,5.42 -18.38,9.75l-10.53 -22.41c7.77,-5.08 15.84,-8.89 24.21,-11.43 8.37,-2.54 17.26,-3.81 26.67,-3.81 17.78,0 31.53,4.18 41.24,12.55 9.71,8.37 14.57,20.62 14.57,36.76l0 30.26c0,3.59 0.56,6.09 1.68,7.51 1.12,1.42 3.1,2.28 5.94,2.58l0 30.26c-3.14,0.75 -5.98,1.23 -8.52,1.46 -2.54,0.22 -4.86,0.34 -6.95,0.34 -6.72,0 -11.81,-1.31 -15.24,-3.92 -3.44,-2.62 -5.6,-6.31 -6.5,-11.1l-0.67 -5.38c-5.23,6.72 -11.47,11.88 -18.72,15.47 -7.25,3.59 -14.91,5.38 -22.97,5.38zm10.53 -25.77c3.88,0 7.66,-0.67 11.32,-2.02 3.66,-1.35 6.69,-3.14 9.08,-5.38 3.44,-2.69 5.16,-5.53 5.16,-8.52l0 -11.21c-3.14,-1.2 -6.54,-2.13 -10.2,-2.8 -3.66,-0.67 -7.06,-1.01 -10.2,-1.01 -6.57,0 -11.99,1.49 -16.25,4.48 -4.26,2.99 -6.39,6.87 -6.39,11.66 0,4.33 1.64,7.88 4.93,10.65 3.29,2.76 7.47,4.15 12.55,4.15zm128.59 25.77c-10.01,0 -19.87,-1.61 -29.59,-4.82 -9.71,-3.21 -17.93,-7.88 -24.65,-14.01l12.78 -21.97c7.17,4.93 14.16,8.74 20.96,11.43 6.8,2.69 13.34,4.03 19.61,4.03 4.63,0 8.22,-0.82 10.76,-2.46 2.54,-1.64 3.81,-4.03 3.81,-7.17 0,-3.14 -1.61,-5.64 -4.82,-7.51 -3.21,-1.87 -8.85,-3.85 -16.92,-5.94 -7.92,-2.24 -14.61,-4.41 -20.06,-6.5 -5.45,-2.09 -9.9,-4.41 -13.34,-6.95 -3.44,-2.54 -5.9,-5.45 -7.4,-8.74 -1.5,-3.29 -2.24,-7.17 -2.24,-11.65 0,-5.98 1.19,-11.43 3.59,-16.36 2.39,-4.93 5.68,-9.12 9.86,-12.55 4.18,-3.44 9.15,-6.13 14.91,-8.07 5.75,-1.94 11.99,-2.91 18.72,-2.91 8.82,0 17.07,1.2 24.77,3.59 7.69,2.39 15.13,6.72 22.3,13l-13.9 21.52c-6.72,-4.63 -12.7,-7.99 -17.93,-10.09 -5.23,-2.09 -10.31,-3.14 -15.24,-3.14 -3.88,0 -7.17,0.78 -9.86,2.35 -2.69,1.57 -4.03,4.07 -4.03,7.51 0,3.29 1.46,5.75 4.37,7.4 2.91,1.64 8.33,3.44 16.25,5.38 8.37,2.24 15.43,4.48 21.18,6.72 5.75,2.24 10.42,4.74 14.01,7.51 3.59,2.76 6.2,5.94 7.85,9.53 1.64,3.59 2.47,7.85 2.47,12.78 0,11.65 -4.33,20.92 -13,27.79 -8.67,6.87 -20.4,10.31 -35.19,10.31z"/>
  </g>
 </g>
</svg>
