<svg xmlns="http://www.w3.org/2000/svg" xmlns:xlink="http://www.w3.org/1999/xlink" xml:space="preserve" width="20%" height="20%" style="shape-rendering:geometricPrecision;text-rendering:geometricPrecision;image-rendering:optimizeQuality;fill-rule:evenodd;clip-rule:evenodd" viewBox="0 0 693.24 690.32"><defs><linearGradient id="a" x1="619.08" x2="654.53" y1="313.45" y2="379.79" gradientUnits="userSpaceOnUse"><stop offset="0" style="stop-opacity:1;stop-color:#00a5e0"/><stop offset="1" style="stop-opacity:1;stop-color:#476da5"/></linearGradient><linearGradient xlink:href="#a" id="e" x1="104.54" x2="178.32" y1="134.11" y2="148.76" gradientUnits="userSpaceOnUse"/><linearGradient xlink:href="#a" id="g" x1="104.54" x2="178.32" y1="544.49" y2="559.14" gradientUnits="userSpaceOnUse"/><linearGradient xlink:href="#a" id="h" x1="514.92" x2="588.7" y1="134.11" y2="148.75" gradientUnits="userSpaceOnUse"/><linearGradient xlink:href="#a" id="k" x1="230.36" x2="513.89" y1="240.57" y2="473.94" gradientUnits="userSpaceOnUse"/><linearGradient xlink:href="#a" id="i" x1="514.92" x2="588.71" y1="544.49" y2="559.14" gradientUnits="userSpaceOnUse"/><linearGradient xlink:href="#a" id="b" x1="303.27" x2="389.97" y1="303.27" y2="389.97" gradientUnits="userSpaceOnUse"/><linearGradient xlink:href="#a" id="j" x1="325.18" x2="368.07" y1="563.26" y2="630.74" gradientUnits="userSpaceOnUse"/><linearGradient xlink:href="#a" id="f" x1="38.72" x2="74.16" y1="313.45" y2="379.8" gradientUnits="userSpaceOnUse"/><linearGradient xlink:href="#a" id="d" x1="313.45" x2="379.79" y1="38.72" y2="74.16" gradientUnits="userSpaceOnUse"/><linearGradient xlink:href="#a" id="c" x1="332.47" x2="360.75" y1="635.6" y2="694.04" gradientUnits="userSpaceOnUse"/></defs><path d="M346.62 285.31c33.86 0 61.31 27.45 61.31 61.31s-27.45 61.31-61.31 61.31-61.31-27.45-61.31-61.31 27.45-61.31 61.31-61.31" style="fill:url(#b)"/><path d="M399.31 639.32c-.58 31.33-29.59 51.39-55.29 50.99-23.87-.36-46.71-11.95-50.09-29.88z" style="fill:url(#c)"/><path d="M346.62 112.88c16.59 0 30.15-13.57 30.15-30.15V30.16c0-16.58-13.57-30.15-30.15-30.15s-30.15 13.57-30.15 30.15v52.57c0 16.58 13.57 30.15 30.15 30.15" style="fill:url(#d)"/><path d="M181.34 181.34c11.73-11.73 11.73-30.92 0-42.64l-37.17-37.18c-11.73-11.73-30.91-11.73-42.64 0s-11.73 30.91 0 42.64l37.18 37.17c11.73 11.73 30.91 11.73 42.64 0z" style="fill:url(#e)"/><path d="M112.88 346.63c0-16.59-13.57-30.15-30.15-30.15H30.16c-16.58 0-30.15 13.57-30.15 30.15s13.57 30.15 30.15 30.15h52.57c16.59 0 30.15-13.57 30.15-30.15" style="fill:url(#f)"/><path d="M181.34 511.91c-11.73-11.73-30.92-11.73-42.64 0l-37.18 37.18c-11.73 11.73-11.73 30.91 0 42.64s30.91 11.73 42.64 0l37.17-37.17c11.73-11.73 11.73-30.91 0-42.64z" style="fill:url(#g)"/><path d="M511.9 181.34c11.73 11.73 30.92 11.73 42.64 0l37.17-37.17c11.73-11.73 11.73-30.91 0-42.64s-30.91-11.73-42.64 0l-37.18 37.18c-11.73 11.73-11.73 30.91 0 42.64z" style="fill:url(#h)"/><path d="M580.37 346.62c0 16.59 13.57 30.15 30.15 30.15h52.57c16.58 0 30.15-13.57 30.15-30.15s-13.57-30.15-30.15-30.15h-52.57c-16.58 0-30.15 13.57-30.15 30.15" style="fill:url(#a)"/><path d="M511.91 511.9c-11.73 11.73-11.73 30.92 0 42.64l37.18 37.17c11.73 11.73 30.91 11.73 42.64 0s11.72-30.91 0-42.64l-37.17-37.17c-11.73-11.73-30.91-11.73-42.64 0z" style="fill:url(#i)"/><path d="m293.92 584.62 105.4-21.11v45.88l-105.4 21.11z" style="fill:url(#j)"/><path d="M383.12 537.05c37.96-7.16 72.63-25.69 100.44-53.49 36.44-36.44 56.73-85.39 56.73-136.93 0-51.55-20.28-100.49-56.73-136.94-36.44-36.44-85.39-56.73-136.94-56.73-33.97 0-67.27 9.09-96.66 26.06l-2.8 1.62h-.11a193.4 193.4 0 0 0-32.52 24.49 174 174 0 0 0-4.15 4c-6.97 6.91-9.22 12.13-1.79 19.58 8.44 8.47 16.88 16.93 25.29 25.42 1.04 1.05 2.34 2.12 3.87 2.28 6.27.66 21.13-10.88 26.1-14.44 24.39-17.5 52.44-28.66 82.78-28.66 35.47 0 69.2 13.97 94.27 39.05 25.08 25.07 39.05 58.8 39.05 94.27s-13.97 69.2-39.05 94.27c-12.17 12.17-26.38 21.72-41.83 28.33-3.65-16.07-18.1-28.16-35.24-28.16h-34.41c-19.87 0-36.13 16.26-36.13 36.13v15.19l-4.65.93c-15.81 5.03-26.99 14.96-28.32 35.32v32.92l122.8-24.5z" style="fill:url(#k)"/></svg>