<svg xmlns="http://www.w3.org/2000/svg" xmlns:xlink="http://www.w3.org/1999/xlink" xml:space="preserve" width="15%" height="15%" style="shape-rendering:geometricPrecision;text-rendering:geometricPrecision;image-rendering:optimizeQuality;fill-rule:evenodd;clip-rule:evenodd" viewBox="0 0 1042.43 437.06"><defs><linearGradient id="a" x1="210.5" x2="228.4" y1="402.42" y2="439.41" gradientUnits="userSpaceOnUse"><stop offset="0" style="stop-opacity:1;stop-color:#00a5e0"/><stop offset="1" style="stop-opacity:1;stop-color:#476da5"/></linearGradient><linearGradient xlink:href="#a" id="j" x1="205.88" x2="233.03" y1="356.62" y2="399.34" gradientUnits="userSpaceOnUse"/><linearGradient xlink:href="#a" id="b" x1="192.01" x2="246.9" y1="192.01" y2="246.9" gradientUnits="userSpaceOnUse"/><linearGradient xlink:href="#a" id="d" x1="66.19" x2="112.9" y1="84.91" y2="94.18" gradientUnits="userSpaceOnUse"/><linearGradient xlink:href="#a" id="e" x1="24.51" x2="46.95" y1="198.46" y2="240.46" gradientUnits="userSpaceOnUse"/><linearGradient xlink:href="#a" id="h" x1="391.96" x2="414.4" y1="198.45" y2="240.46" gradientUnits="userSpaceOnUse"/><linearGradient xlink:href="#a" id="i" x1="326.01" x2="372.72" y1="344.73" y2="354" gradientUnits="userSpaceOnUse"/><linearGradient xlink:href="#a" id="k" x1="145.85" x2="325.36" y1="152.31" y2="300.07" gradientUnits="userSpaceOnUse"/><linearGradient xlink:href="#a" id="f" x1="66.19" x2="112.9" y1="344.73" y2="354" gradientUnits="userSpaceOnUse"/><linearGradient xlink:href="#a" id="g" x1="326.01" x2="372.72" y1="84.91" y2="94.18" gradientUnits="userSpaceOnUse"/><linearGradient xlink:href="#a" id="c" x1="198.45" x2="240.46" y1="24.51" y2="46.95" gradientUnits="userSpaceOnUse"/></defs><path d="M502.88 282.5h-9.13v127.07h10.36v-58.25l1.44 2.37c3.58 5.9 8.29 10.75 14.05 14.56 6.02 3.99 12.78 5.74 19.98 5.74 5.73 0 11.25-1.15 16.39-3.69 4.99-2.46 9.29-5.82 12.9-10.06 3.73-4.38 6.47-9.39 8.36-14.82 2.01-5.8 2.94-11.84 2.94-17.97 0-5.99-1.08-11.82-3.19-17.43-2.07-5.48-5.01-10.51-8.88-14.92-3.8-4.32-8.29-7.76-13.43-10.33-5.33-2.66-11.05-3.86-17-3.86-6.83 0-13.19 1.73-19.05 5.24-5.81 3.47-10.6 8.03-14.29 13.69l-1.43 2.19V282.5zm33.37 82.53c-3.46 0-6.84-.6-10.08-1.8s-6.27-2.86-9.04-4.92a38.8 38.8 0 0 1-7.51-7.42c-2.2-2.86-4.02-5.96-5.44-9.28l-.06-.15V313.2l.01-.06c.51-3.33 1.91-6.33 3.91-9.02 2.11-2.84 4.65-5.3 7.53-7.35 2.92-2.09 6.1-3.76 9.47-5 3.15-1.16 6.46-1.89 9.82-1.89 4.8 0 9.41.98 13.74 3.06 4.21 2.02 7.9 4.77 11.02 8.24 3.16 3.53 5.59 7.57 7.33 11.97 1.81 4.58 2.68 9.38 2.68 14.3 0 4.73-.77 9.36-2.32 13.83-1.52 4.38-3.74 8.42-6.71 11.98-2.94 3.54-6.49 6.38-10.58 8.52-4.29 2.24-8.94 3.24-13.77 3.24zm105.15-73.55v-9.45c-.5-.06-1.02-.07-1.5-.07-6.59 0-12.55 2.07-17.96 5.82-5.93 4.11-10.28 9.7-13.41 16.17l-1.48 3.05v-24.52h-9.66v89.74h10.36v-56.13l.04-.12c2.43-7.28 6.63-13.31 12.91-17.74 6.18-4.36 13.2-6.44 20.7-6.77zm46.6 82.51c6.23 0 12.3-1.12 17.99-3.7 5.36-2.43 10.11-5.77 14.12-10.07 4.03-4.32 7.08-9.31 9.22-14.82 2.21-5.7 3.28-11.66 3.28-17.77 0-6.18-1.08-12.2-3.36-17.94-2.19-5.5-5.27-10.49-9.31-14.83-4.02-4.31-8.78-7.68-14.13-10.16-5.62-2.61-11.62-3.78-17.81-3.78-6.16 0-12.13 1.17-17.72 3.78-5.32 2.49-10.04 5.87-14.04 10.16-4.04 4.34-7.12 9.33-9.31 14.83-2.28 5.74-3.36 11.76-3.36 17.94 0 6.11 1.07 12.07 3.28 17.77 2.14 5.51 5.19 10.5 9.22 14.82 4 4.29 8.71 7.64 14.04 10.07 5.66 2.59 11.7 3.7 17.9 3.7zm-33.9-46.19c0-5.06.84-10.02 2.68-14.74 1.73-4.44 4.15-8.51 7.33-12.06 3.05-3.4 6.64-6.16 10.75-8.15 4.14-2.01 8.54-2.97 13.13-2.97 4.62 0 9.05.97 13.21 2.97 4.13 1.98 7.75 4.68 10.84 8.06 3.2 3.51 5.61 7.56 7.33 11.98 1.82 4.66 2.68 9.56 2.68 14.56 0 5.03-.83 9.96-2.68 14.65-1.73 4.39-4.15 8.4-7.33 11.89-3.09 3.38-6.71 6.09-10.84 8.06-4.17 1.99-8.6 2.97-13.21 2.97s-9.03-.94-13.21-2.88a33.1 33.1 0 0 1-10.77-7.98c-3.12-3.48-5.51-7.46-7.24-11.79-1.86-4.65-2.69-9.57-2.69-14.57zm104.7-45.31h-9.13v127.07h10.36v-58.25l1.44 2.37c3.59 5.9 8.3 10.75 14.05 14.56 6.02 3.99 12.78 5.74 19.98 5.74 5.73 0 11.25-1.15 16.39-3.69 4.98-2.46 9.29-5.82 12.9-10.06 3.73-4.38 6.47-9.39 8.36-14.82 2.01-5.8 2.94-11.84 2.94-17.97 0-5.99-1.08-11.82-3.19-17.43-2.07-5.48-5.01-10.51-8.88-14.92-3.8-4.32-8.29-7.76-13.43-10.33-5.33-2.66-11.06-3.86-17-3.86-6.83 0-13.19 1.73-19.05 5.24-5.81 3.47-10.59 8.03-14.29 13.69l-1.43 2.19v-19.53zm33.37 82.53c-3.46 0-6.84-.6-10.08-1.8s-6.27-2.86-9.04-4.92a38.8 38.8 0 0 1-7.51-7.42c-2.2-2.86-4.02-5.96-5.44-9.28l-.06-.15v-28.26l.01-.06c.51-3.33 1.91-6.33 3.91-9.02 2.11-2.84 4.65-5.3 7.53-7.35a40 40 0 0 1 9.47-5c3.15-1.16 6.46-1.89 9.82-1.89 4.8 0 9.41.98 13.74 3.06 4.21 2.02 7.9 4.77 11.02 8.24 3.16 3.53 5.59 7.57 7.33 11.97 1.81 4.58 2.68 9.38 2.68 14.3 0 4.73-.77 9.36-2.32 13.83-1.52 4.38-3.74 8.42-6.71 11.98-2.94 3.54-6.49 6.38-10.58 8.52-4.29 2.24-8.94 3.24-13.77 3.24zm61.14 7.21h10.36v-89.74h-10.36zm106.3.12v-9.12c-3.04-.31-4.38-2.48-4.38-5.65V316.4c0-9.77-2.46-19.09-9.58-26.08-7.16-7.03-16.63-9.42-26.44-9.42-12.1 0-23.39 4.81-33.33 11.39l3.46 6.5c4.48-3.06 9.27-5.72 14.34-7.65 4.69-1.79 9.61-2.85 14.65-2.85 7.35 0 14.29 1.93 19.48 7.33 5.19 5.39 7.05 12.38 7.05 19.73v9.39l-1.07-.44c-4.04-1.64-8.34-2.72-12.63-3.46-4.65-.79-9.35-1.22-14.06-1.22-5.12 0-10.27.57-15.21 1.98-4.22 1.21-8.28 3-11.85 5.58-3.15 2.28-5.78 5.09-7.66 8.51-1.83 3.31-2.71 6.88-2.71 10.66 0 3.75.7 7.38 2.21 10.81 1.47 3.34 3.55 6.27 6.22 8.77 2.74 2.56 5.91 4.51 9.39 5.89 3.74 1.49 7.7 2.14 11.72 2.14 7.05 0 13.86-1.37 20.27-4.31 6.21-2.85 11.41-6.96 15.57-12.38l1.29-1.68.45 9.3c.11 2.22.77 4.26 2.46 5.77 1.8 1.61 4.23 2.08 6.58 2.08 1.21 0 2.55-.19 3.78-.4zm-18.08-19c-3.03 4.32-7.34 7.35-12.11 9.5-5.51 2.48-11.38 3.57-17.4 3.57-3.05 0-6.03-.52-8.87-1.63-2.65-1.04-5.09-2.49-7.17-4.45-2.02-1.89-3.59-4.12-4.73-6.64-1.17-2.6-1.73-5.36-1.73-8.21 0-6.3 3.05-11.04 8.23-14.49 6.15-4.1 13.66-5.39 20.93-5.39 4.43 0 8.85.41 13.2 1.24 4.26.82 8.44 1.99 12.49 3.54l.5.19v15.43c0 1.28-.35 2.55-.85 3.72-.58 1.36-1.44 2.56-2.48 3.61zm93.19-54.93 4.8-5.82c-3.67-3.74-8.24-6.41-13.09-8.34-5.99-2.38-12.38-3.36-18.81-3.36-4.4 0-8.78.53-13.02 1.72-3.81 1.07-7.42 2.7-10.62 5.05-3.03 2.23-5.4 5.06-7.13 8.4-1.88 3.65-2.63 7.65-2.63 11.73 0 2.93.41 6.04 1.75 8.67 1.23 2.4 3.09 4.28 5.34 5.75 2.85 1.86 6.15 3.22 9.37 4.29 4.47 1.49 9.02 2.75 13.6 3.84 4.02.96 8.06 1.93 12.04 3.08 2.98.86 6.04 1.96 8.75 3.49 2.1 1.18 4.05 2.71 5.43 4.71 1.39 2.02 1.89 4.42 1.89 6.84 0 5.64-2.23 10.16-6.91 13.35-5.24 3.56-11.83 4.6-18.05 4.6-5.97 0-11.81-1.01-17.37-3.21-5.52-2.18-10.6-5.35-15.23-9.05l-4.58 6.8c4.91 4.31 10.58 7.43 16.75 9.56 6.66 2.3 13.55 3.46 20.6 3.46 8.92 0 18.22-1.67 25.46-7.2 6.37-4.87 9.33-11.37 9.33-19.36 0-3.26-.56-6.56-2.18-9.43-1.55-2.75-3.82-4.89-6.48-6.56-3.35-2.1-7.19-3.64-10.95-4.82-5.06-1.6-10.2-2.97-15.36-4.19-3.5-.82-7.04-1.68-10.48-2.73-2.48-.76-5.03-1.72-7.27-3.05-1.76-1.05-3.34-2.42-4.32-4.24-1.02-1.9-1.32-4.19-1.32-6.33 0-2.78.51-5.53 1.84-7.99 1.23-2.28 2.93-4.15 5.06-5.62 2.23-1.53 4.73-2.55 7.35-3.18 2.93-.7 5.94-.99 8.94-.99 5.28 0 10.45.88 15.42 2.67 4.54 1.64 8.6 4.1 12.04 7.46z" style="fill:#4a4b55"/><path d="M492.69 237.16V122.05h35.99v115.11zm17.93-168.2c11.12 0 20.14 9.02 20.14 20.14s-9.02 20.14-20.14 20.14-20.14-9.02-20.14-20.14 9.02-20.14 20.14-20.14m86.59 170.45c-8.1 0-15.56-1.54-22.38-4.61s-12.71-7.38-17.66-12.93-8.81-12.03-11.58-19.46c-2.77-7.42-4.16-15.56-4.16-24.4 0-8.55 1.27-16.57 3.82-24.07s6.15-13.98 10.8-19.46q6.975-8.205 16.53-12.93c6.37-3.15 13.38-4.72 21.03-4.72q12.375 0 22.38 5.85c6.67 3.9 11.81 9.15 15.41 15.74V72.97h35.99v123.7c0 3.6.56 6.11 1.69 7.53 1.12 1.43 3.11 2.29 5.96 2.59v30.36c-3.3.75-6.15 1.24-8.55 1.46-2.4.23-4.65.34-6.75.34-6.3 0-11.4-1.31-15.3-3.94-3.9-2.62-6.15-6.41-6.75-11.36l-.68-6.07c-4.2 7.35-9.86 12.82-16.98 16.42q-10.68 5.4-22.83 5.4zm9.67-30.36c4.95 0 9.71-1.46 14.28-4.39 4.57-2.92 8.06-6.93 10.46-12.03v-24.74c-2.25-6-5.88-10.91-10.91-14.73-5.02-3.82-10.23-5.74-15.63-5.74-3.9 0-7.46.86-10.68 2.59a28.5 28.5 0 0 0-8.43 6.86c-2.4 2.85-4.24 6.15-5.51 9.9s-1.91 7.72-1.91 11.92c0 4.35.71 8.4 2.14 12.15 1.42 3.75 3.37 6.97 5.85 9.67q3.705 4.05 9 6.3c3.52 1.5 7.31 2.25 11.36 2.25zm139.6 30.36c-9.9 0-18.78-1.61-26.65-4.83-7.87-3.23-14.54-7.61-20.02-13.16q-8.205-8.325-12.48-19.23c-2.85-7.27-4.28-14.88-4.28-22.83 0-8.55 1.43-16.61 4.28-24.18s6.97-14.21 12.37-19.9c5.4-5.7 12.03-10.2 19.91-13.5q11.805-4.95 26.88-4.95t26.76 4.95c7.8 3.3 14.4 7.76 19.79 13.38 5.4 5.62 9.48 12.11 12.26 19.46 2.77 7.35 4.16 15.07 4.16 23.17 0 2.1-.07 4.16-.23 6.18-.15 2.02-.37 3.79-.67 5.29h-87.27c.6 7.95 3.49 13.98 8.66 18.11 5.17 4.12 11.06 6.19 17.66 6.19 5.25 0 10.31-1.27 15.18-3.82q7.305-3.825 9.78-10.35l30.59 8.55c-4.65 9.3-11.85 16.87-21.59 22.72-9.75 5.85-21.44 8.77-35.09 8.77zm24.97-72.42c-.75-7.5-3.45-13.42-8.1-17.77s-10.42-6.52-17.32-6.52q-10.575 0-17.43 6.63c-4.57 4.42-7.23 10.31-7.98 17.66zm82.7 72.42c-5.85 0-11.28-.94-16.31-2.81-5.02-1.87-9.33-4.5-12.93-7.87s-6.45-7.35-8.55-11.92-3.15-9.56-3.15-14.96c0-5.85 1.24-11.17 3.71-15.97s5.96-8.92 10.46-12.37 9.82-6.15 15.97-8.1 12.97-2.92 20.47-2.92c4.95 0 9.75.41 14.4 1.24s8.7 2.06 12.14 3.71v-5.4c0-13.65-7.87-20.47-23.61-20.47-6.45 0-12.6 1.09-18.44 3.26-5.85 2.17-12 5.43-18.44 9.78l-10.57-22.49c7.8-5.1 15.89-8.92 24.29-11.47s17.32-3.83 26.77-3.83c17.84 0 31.64 4.2 41.38 12.6 9.75 8.4 14.62 20.69 14.62 36.89v30.36c0 3.6.56 6.11 1.69 7.53 1.13 1.43 3.11 2.29 5.96 2.59v30.36c-3.15.75-6 1.24-8.55 1.46-2.55.23-4.88.34-6.97.34-6.75 0-11.85-1.31-15.29-3.94-3.45-2.62-5.62-6.33-6.52-11.13l-.67-5.4c-5.25 6.75-11.51 11.92-18.78 15.52s-14.96 5.4-23.05 5.4zm10.57-25.86c3.9 0 7.68-.67 11.36-2.02 3.67-1.35 6.71-3.15 9.11-5.4 3.45-2.7 5.17-5.55 5.17-8.55v-11.25c-3.15-1.2-6.56-2.14-10.23-2.81s-7.08-1.01-10.23-1.01c-6.6 0-12.03 1.5-16.31 4.5-4.27 3-6.41 6.9-6.41 11.7q0 6.525 4.95 10.68c3.3 2.77 7.5 4.16 12.6 4.16zm129.03 25.86c-10.05 0-19.94-1.61-29.69-4.83-9.75-3.23-17.99-7.91-24.74-14.06l12.82-22.04c7.2 4.95 14.21 8.77 21.03 11.47Q983.4 214 992.85 214c4.65 0 8.25-.82 10.79-2.47 2.55-1.65 3.83-4.05 3.83-7.2s-1.61-5.66-4.84-7.53c-3.22-1.88-8.88-3.86-16.98-5.96-7.95-2.25-14.66-4.42-20.13-6.52s-9.93-4.42-13.38-6.97-5.92-5.47-7.42-8.77q-2.25-4.95-2.25-11.7c0-6 1.2-11.47 3.6-16.42q3.6-7.425 9.9-12.6c4.2-3.45 9.18-6.15 14.96-8.1 5.77-1.95 12.03-2.93 18.78-2.93 8.85 0 17.13 1.2 24.85 3.6q11.58 3.6 22.38 13.05l-13.95 21.59c-6.75-4.65-12.75-8.02-17.99-10.12-5.25-2.1-10.35-3.15-15.29-3.15-3.9 0-7.2.79-9.9 2.36q-4.05 2.37-4.05 7.53c0 3.3 1.46 5.77 4.39 7.42 2.92 1.65 8.36 3.45 16.31 5.4 8.4 2.25 15.48 4.5 21.25 6.75s10.46 4.76 14.06 7.54c3.6 2.77 6.22 5.96 7.87 9.56s2.47 7.87 2.47 12.82c0 11.7-4.35 20.99-13.05 27.89q-13.05 10.35-35.31 10.35z" style="fill:#357bb5;fill-rule:nonzero"/><path d="M219.46 180.64c21.44 0 38.82 17.38 38.82 38.82s-17.38 38.82-38.82 38.82-38.82-17.38-38.82-38.82 17.38-38.82 38.82-38.82" style="fill:url(#b)"/><path d="M252.81 404.77c-.36 19.84-18.74 32.53-35.01 32.29-15.12-.23-29.58-7.57-31.71-18.92z" style="fill:url(#a)"/><path d="M219.45 71.47c10.5 0 19.09-8.59 19.09-19.09V19.09c0-10.5-8.59-19.09-19.09-19.09s-19.09 8.59-19.09 19.09v33.29c0 10.5 8.59 19.09 19.09 19.09" style="fill:url(#c)"/><path d="M114.81 114.81c7.42-7.42 7.42-19.57 0-27L91.27 64.27c-7.42-7.42-19.57-7.42-27 0-7.42 7.42-7.42 19.57 0 27l23.54 23.54c7.43 7.42 19.57 7.42 27 0" style="fill:url(#d)"/><path d="M71.47 219.46c0-10.5-8.59-19.09-19.09-19.09H19.1c-10.5 0-19.09 8.59-19.09 19.09s8.59 19.09 19.09 19.09h33.28c10.5 0 19.09-8.59 19.09-19.09" style="fill:url(#e)"/><path d="M114.81 324.1c-7.42-7.43-19.57-7.43-27 0l-23.54 23.54c-7.42 7.42-7.42 19.57 0 27 7.42 7.42 19.57 7.42 27 0l23.54-23.53c7.42-7.42 7.42-19.57 0-27z" style="fill:url(#f)"/><path d="M324.1 114.81c7.42 7.43 19.57 7.43 27 0l23.53-23.53c7.43-7.42 7.43-19.57 0-27-7.42-7.42-19.57-7.42-27 0l-23.54 23.54c-7.42 7.42-7.42 19.57 0 27z" style="fill:url(#g)"/><path d="M367.45 219.45c0 10.5 8.59 19.09 19.09 19.09h33.28c10.5 0 19.09-8.59 19.09-19.09s-8.59-19.09-19.09-19.09h-33.28c-10.5 0-19.09 8.59-19.09 19.09" style="fill:url(#h)"/><path d="M324.1 324.1c-7.43 7.43-7.43 19.58 0 27l23.54 23.54c7.42 7.43 19.57 7.43 27 0 7.42-7.42 7.42-19.57 0-27l-23.53-23.54c-7.42-7.42-19.57-7.42-27 0z" style="fill:url(#i)"/><path d="m186.09 370.14 66.73-13.37v29.05l-66.73 13.37z" style="fill:url(#j)"/><path d="M242.56 340.02c24.04-4.53 45.99-16.26 63.59-33.87 23.07-23.07 35.91-54.06 35.91-86.7s-12.84-63.62-35.91-86.7c-23.07-23.07-54.06-35.91-86.7-35.91-21.51 0-42.59 5.76-61.2 16.5l-1.77 1.03h-.07a123 123 0 0 0-23.22 18.04c-4.42 4.37-5.84 7.68-1.14 12.39 5.34 5.36 10.68 10.72 16.01 16.1.66.66 1.48 1.34 2.45 1.44 3.97.42 13.38-6.89 16.52-9.15 15.44-11.08 33.2-18.14 52.41-18.14 22.46 0 43.81 8.84 59.69 24.72s24.72 37.23 24.72 59.69-8.84 43.81-24.72 59.69c-7.7 7.7-16.7 13.75-26.48 17.94-2.31-10.17-11.46-17.83-22.31-17.83h-21.79c-12.58 0-22.88 10.29-22.88 22.88v9.62l-2.94.59c-10.01 3.18-17.09 9.47-17.93 22.36v20.84l77.74-15.51z" style="fill:url(#k)"/></svg>