<?xml version="1.0" encoding="UTF-8"?>
<!DOCTYPE svg PUBLIC "-//W3C//DTD SVG 1.1//EN" "http://www.w3.org/Graphics/SVG/1.1/DTD/svg11.dtd">
<!-- Creator: CorelDRAW 2019 (64-Bit Versión de evaluación) -->
<svg xmlns="http://www.w3.org/2000/svg" xml:space="preserve" width="15%" height="15%" version="1.1" style="shape-rendering:geometricPrecision; text-rendering:geometricPrecision; image-rendering:optimizeQuality; fill-rule:evenodd; clip-rule:evenodd"
viewBox="0 0 1042.43 437.06"
 xmlns:xlink="http://www.w3.org/1999/xlink"
 xmlns:xodm="http://www.corel.com/coreldraw/odm/2003">
 <defs>
  <style type="text/css">
   <![CDATA[
    .fil0 {fill:#534E4A}
    .fil1 {fill:#534E4A;fill-rule:nonzero}
   ]]>
  </style>
 </defs>
 <g id="Capa_x0020_1">
  <metadata id="CorelCorpID_0Corel-Layer"/>
  <g id="_2774783233312">
   <path class="fil0" d="M502.88 282.5l-9.13 0 0 127.07 10.36 0 0 -58.25 1.44 2.37c3.58,5.9 8.29,10.75 14.05,14.56 6.02,3.99 12.78,5.74 19.98,5.74 5.73,0 11.25,-1.15 16.39,-3.69 4.99,-2.46 9.29,-5.82 12.9,-10.06 3.73,-4.38 6.47,-9.39 8.36,-14.82 2.01,-5.8 2.94,-11.84 2.94,-17.97 0,-5.99 -1.08,-11.82 -3.19,-17.43 -2.07,-5.48 -5.01,-10.51 -8.88,-14.92 -3.8,-4.32 -8.29,-7.76 -13.43,-10.33 -5.33,-2.66 -11.05,-3.86 -17,-3.86 -6.83,0 -13.19,1.73 -19.05,5.24 -5.81,3.47 -10.6,8.03 -14.29,13.69l-1.43 2.19 0 -19.53zm33.37 82.53c-3.46,0 -6.84,-0.6 -10.08,-1.8 -3.24,-1.2 -6.27,-2.86 -9.04,-4.92 -2.84,-2.12 -5.35,-4.62 -7.51,-7.42 -2.2,-2.86 -4.02,-5.96 -5.44,-9.28l-0.06 -0.15 0 -28.26 0.01 -0.06c0.51,-3.33 1.91,-6.33 3.91,-9.02 2.11,-2.84 4.65,-5.3 7.53,-7.35 2.92,-2.09 6.1,-3.76 9.47,-5 3.15,-1.16 6.46,-1.89 9.82,-1.89 4.8,0 9.41,0.98 13.74,3.06 4.21,2.02 7.9,4.77 11.02,8.24 3.16,3.53 5.59,7.57 7.33,11.97 1.81,4.58 2.68,9.38 2.68,14.3 0,4.73 -0.77,9.36 -2.32,13.83 -1.52,4.38 -3.74,8.42 -6.71,11.98 -2.94,3.54 -6.49,6.38 -10.58,8.52 -4.29,2.24 -8.94,3.24 -13.77,3.24zm105.15 -73.55l0 -9.45c-0.5,-0.06 -1.02,-0.07 -1.5,-0.07 -6.59,0 -12.55,2.07 -17.96,5.82 -5.93,4.11 -10.28,9.7 -13.41,16.17l-1.48 3.05 0 -24.52 -9.66 0 0 89.74 10.36 0 0 -56.13 0.04 -0.12c2.43,-7.28 6.63,-13.31 12.91,-17.74 6.18,-4.36 13.2,-6.44 20.7,-6.77zm46.6 82.51c6.23,0 12.3,-1.12 17.99,-3.7 5.36,-2.43 10.11,-5.77 14.12,-10.07 4.03,-4.32 7.08,-9.31 9.22,-14.82 2.21,-5.7 3.28,-11.66 3.28,-17.77 0,-6.18 -1.08,-12.2 -3.36,-17.94 -2.19,-5.5 -5.27,-10.49 -9.31,-14.83 -4.02,-4.31 -8.78,-7.68 -14.13,-10.16 -5.62,-2.61 -11.62,-3.78 -17.81,-3.78 -6.16,0 -12.13,1.17 -17.72,3.78 -5.32,2.49 -10.04,5.87 -14.04,10.16 -4.04,4.34 -7.12,9.33 -9.31,14.83 -2.28,5.74 -3.36,11.76 -3.36,17.94 0,6.11 1.07,12.07 3.28,17.77 2.14,5.51 5.19,10.5 9.22,14.82 4,4.29 8.71,7.64 14.04,10.07 5.66,2.59 11.7,3.7 17.9,3.7zm-33.9 -46.19c0,-5.06 0.84,-10.02 2.68,-14.74 1.73,-4.44 4.15,-8.51 7.33,-12.06 3.05,-3.4 6.64,-6.16 10.75,-8.15 4.14,-2.01 8.54,-2.97 13.13,-2.97 4.62,0 9.05,0.97 13.21,2.97 4.13,1.98 7.75,4.68 10.84,8.06 3.2,3.51 5.61,7.56 7.33,11.98 1.82,4.66 2.68,9.56 2.68,14.56 0,5.03 -0.83,9.96 -2.68,14.65 -1.73,4.39 -4.15,8.4 -7.33,11.89 -3.09,3.38 -6.71,6.09 -10.84,8.06 -4.17,1.99 -8.6,2.97 -13.21,2.97 -4.61,0 -9.03,-0.94 -13.21,-2.88 -4.13,-1.92 -7.73,-4.59 -10.77,-7.98 -3.12,-3.48 -5.51,-7.46 -7.24,-11.79 -1.86,-4.65 -2.69,-9.57 -2.69,-14.57zm104.7 -45.31l-9.13 0 0 127.07 10.36 0 0 -58.25 1.44 2.37c3.59,5.9 8.3,10.75 14.05,14.56 6.02,3.99 12.78,5.74 19.98,5.74 5.73,0 11.25,-1.15 16.39,-3.69 4.98,-2.46 9.29,-5.82 12.9,-10.06 3.73,-4.38 6.47,-9.39 8.36,-14.82 2.01,-5.8 2.94,-11.84 2.94,-17.97 0,-5.99 -1.08,-11.82 -3.19,-17.43 -2.07,-5.48 -5.01,-10.51 -8.88,-14.92 -3.8,-4.32 -8.29,-7.76 -13.43,-10.33 -5.33,-2.66 -11.06,-3.86 -17,-3.86 -6.83,0 -13.19,1.73 -19.05,5.24 -5.81,3.47 -10.59,8.03 -14.29,13.69l-1.43 2.19 0 -19.53zm33.37 82.53c-3.46,0 -6.84,-0.6 -10.08,-1.8 -3.24,-1.2 -6.27,-2.86 -9.04,-4.92 -2.84,-2.12 -5.35,-4.62 -7.51,-7.42 -2.2,-2.86 -4.02,-5.96 -5.44,-9.28l-0.06 -0.15 0 -28.26 0.01 -0.06c0.51,-3.33 1.91,-6.33 3.91,-9.02 2.11,-2.84 4.65,-5.3 7.53,-7.35 2.93,-2.09 6.1,-3.76 9.47,-5 3.15,-1.16 6.46,-1.89 9.82,-1.89 4.8,0 9.41,0.98 13.74,3.06 4.21,2.02 7.9,4.77 11.02,8.24 3.16,3.53 5.59,7.57 7.33,11.97 1.81,4.58 2.68,9.38 2.68,14.3 0,4.73 -0.77,9.36 -2.32,13.83 -1.52,4.38 -3.74,8.42 -6.71,11.98 -2.94,3.54 -6.49,6.38 -10.58,8.52 -4.29,2.24 -8.94,3.24 -13.77,3.24zm61.14 7.21l10.36 0 0 -89.74 -10.36 0 0 89.74zm106.3 0.12l0 -9.12c-3.04,-0.31 -4.38,-2.48 -4.38,-5.65l0 -41.18c0,-9.77 -2.46,-19.09 -9.58,-26.08 -7.16,-7.03 -16.63,-9.42 -26.44,-9.42 -12.1,0 -23.39,4.81 -33.33,11.39l3.46 6.5c4.48,-3.06 9.27,-5.72 14.34,-7.65 4.69,-1.79 9.61,-2.85 14.65,-2.85 7.35,0 14.29,1.93 19.48,7.33 5.19,5.39 7.05,12.38 7.05,19.73l0 9.39 -1.07 -0.44c-4.04,-1.64 -8.34,-2.72 -12.63,-3.46 -4.65,-0.79 -9.35,-1.22 -14.06,-1.22 -5.12,0 -10.27,0.57 -15.21,1.98 -4.22,1.21 -8.28,3 -11.85,5.58 -3.15,2.28 -5.78,5.09 -7.66,8.51 -1.83,3.31 -2.71,6.88 -2.71,10.66 0,3.75 0.7,7.38 2.21,10.81 1.47,3.34 3.55,6.27 6.22,8.77 2.74,2.56 5.91,4.51 9.39,5.89 3.74,1.49 7.7,2.14 11.72,2.14 7.05,0 13.86,-1.37 20.27,-4.31 6.21,-2.85 11.41,-6.96 15.57,-12.38l1.29 -1.68 0.45 9.3c0.11,2.22 0.77,4.26 2.46,5.77 1.8,1.61 4.23,2.08 6.58,2.08 1.21,0 2.55,-0.19 3.78,-0.4zm-18.08 -19c-3.03,4.32 -7.34,7.35 -12.11,9.5 -5.51,2.48 -11.38,3.57 -17.4,3.57 -3.05,0 -6.03,-0.52 -8.87,-1.63 -2.65,-1.04 -5.09,-2.49 -7.17,-4.45 -2.02,-1.89 -3.59,-4.12 -4.73,-6.64 -1.17,-2.6 -1.73,-5.36 -1.73,-8.21 0,-6.3 3.05,-11.04 8.23,-14.49 6.15,-4.1 13.66,-5.39 20.93,-5.39 4.43,0 8.85,0.41 13.2,1.24 4.26,0.82 8.44,1.99 12.49,3.54l0.5 0.19 0 15.43c0,1.28 -0.35,2.55 -0.85,3.72 -0.58,1.36 -1.44,2.56 -2.48,3.61zm93.19 -54.93l4.8 -5.82c-3.67,-3.74 -8.24,-6.41 -13.09,-8.34 -5.99,-2.38 -12.38,-3.36 -18.81,-3.36 -4.4,0 -8.78,0.53 -13.02,1.72 -3.81,1.07 -7.42,2.7 -10.62,5.05 -3.03,2.23 -5.4,5.06 -7.13,8.4 -1.88,3.65 -2.63,7.65 -2.63,11.73 0,2.93 0.41,6.04 1.75,8.67 1.23,2.4 3.09,4.28 5.34,5.75 2.85,1.86 6.15,3.22 9.37,4.29 4.47,1.49 9.02,2.75 13.6,3.84 4.02,0.96 8.06,1.93 12.04,3.08 2.98,0.86 6.04,1.96 8.75,3.49 2.1,1.18 4.05,2.71 5.43,4.71 1.39,2.02 1.89,4.42 1.89,6.84 0,5.64 -2.23,10.16 -6.91,13.35 -5.24,3.56 -11.83,4.6 -18.05,4.6 -5.97,0 -11.81,-1.01 -17.37,-3.21 -5.52,-2.18 -10.6,-5.35 -15.23,-9.05l-4.58 6.8c4.91,4.31 10.58,7.43 16.75,9.56 6.66,2.3 13.55,3.46 20.6,3.46 8.92,0 18.22,-1.67 25.46,-7.2 6.37,-4.87 9.33,-11.37 9.33,-19.36 0,-3.26 -0.56,-6.56 -2.18,-9.43 -1.55,-2.75 -3.82,-4.89 -6.48,-6.56 -3.35,-2.1 -7.19,-3.64 -10.95,-4.82 -5.06,-1.6 -10.2,-2.97 -15.36,-4.19 -3.5,-0.82 -7.04,-1.68 -10.48,-2.73 -2.48,-0.76 -5.03,-1.72 -7.27,-3.05 -1.76,-1.05 -3.34,-2.42 -4.32,-4.24 -1.02,-1.9 -1.32,-4.19 -1.32,-6.33 0,-2.78 0.51,-5.53 1.84,-7.99 1.23,-2.28 2.93,-4.15 5.06,-5.62 2.23,-1.53 4.73,-2.55 7.35,-3.18 2.93,-0.7 5.94,-0.99 8.94,-0.99 5.28,0 10.45,0.88 15.42,2.67 4.54,1.64 8.6,4.1 12.04,7.46z"/>
   <path class="fil1" d="M492.69 237.16l0 -115.11 35.99 0 0 115.11 -35.99 0zm17.93 -168.2c11.12,0 20.14,9.02 20.14,20.14 0,11.12 -9.02,20.14 -20.14,20.14 -11.12,0 -20.14,-9.02 -20.14,-20.14 0,-11.12 9.02,-20.14 20.14,-20.14zm86.59 170.45c-8.1,0 -15.56,-1.54 -22.38,-4.61 -6.82,-3.07 -12.71,-7.38 -17.66,-12.93 -4.95,-5.55 -8.81,-12.03 -11.58,-19.46 -2.77,-7.42 -4.16,-15.56 -4.16,-24.4 0,-8.55 1.27,-16.57 3.82,-24.07 2.55,-7.5 6.15,-13.98 10.8,-19.46 4.65,-5.47 10.16,-9.78 16.53,-12.93 6.37,-3.15 13.38,-4.72 21.03,-4.72 8.25,0 15.71,1.95 22.38,5.85 6.67,3.9 11.81,9.15 15.41,15.74l0 -65.45 35.99 0 0 123.7c0,3.6 0.56,6.11 1.69,7.53 1.12,1.43 3.11,2.29 5.96,2.59l0 30.36c-3.3,0.75 -6.15,1.24 -8.55,1.46 -2.4,0.23 -4.65,0.34 -6.75,0.34 -6.3,0 -11.4,-1.31 -15.3,-3.94 -3.9,-2.62 -6.15,-6.41 -6.75,-11.36l-0.68 -6.07c-4.2,7.35 -9.86,12.82 -16.98,16.42 -7.12,3.6 -14.73,5.4 -22.83,5.4zm9.67 -30.36c4.95,0 9.71,-1.46 14.28,-4.39 4.57,-2.92 8.06,-6.93 10.46,-12.03l0 -24.74c-2.25,-6 -5.88,-10.91 -10.91,-14.73 -5.02,-3.82 -10.23,-5.74 -15.63,-5.74 -3.9,0 -7.46,0.86 -10.68,2.59 -3.22,1.73 -6.04,4.01 -8.43,6.86 -2.4,2.85 -4.24,6.15 -5.51,9.9 -1.27,3.75 -1.91,7.72 -1.91,11.92 0,4.35 0.71,8.4 2.14,12.15 1.42,3.75 3.37,6.97 5.85,9.67 2.47,2.7 5.47,4.8 9,6.3 3.52,1.5 7.31,2.25 11.36,2.25zm139.6 30.36c-9.9,0 -18.78,-1.61 -26.65,-4.83 -7.87,-3.23 -14.54,-7.61 -20.02,-13.16 -5.47,-5.55 -9.63,-11.96 -12.48,-19.23 -2.85,-7.27 -4.28,-14.88 -4.28,-22.83 0,-8.55 1.43,-16.61 4.28,-24.18 2.85,-7.57 6.97,-14.21 12.37,-19.9 5.4,-5.7 12.03,-10.2 19.91,-13.5 7.87,-3.3 16.83,-4.95 26.88,-4.95 10.05,0 18.97,1.65 26.76,4.95 7.8,3.3 14.4,7.76 19.79,13.38 5.4,5.62 9.48,12.11 12.26,19.46 2.77,7.35 4.16,15.07 4.16,23.17 0,2.1 -0.07,4.16 -0.23,6.18 -0.15,2.02 -0.37,3.79 -0.67,5.29l-87.27 0c0.6,7.95 3.49,13.98 8.66,18.11 5.17,4.12 11.06,6.19 17.66,6.19 5.25,0 10.31,-1.27 15.18,-3.82 4.87,-2.55 8.13,-6 9.78,-10.35l30.59 8.55c-4.65,9.3 -11.85,16.87 -21.59,22.72 -9.75,5.85 -21.44,8.77 -35.09,8.77zm24.97 -72.42c-0.75,-7.5 -3.45,-13.42 -8.1,-17.77 -4.65,-4.35 -10.42,-6.52 -17.32,-6.52 -7.05,0 -12.86,2.21 -17.43,6.63 -4.57,4.42 -7.23,10.31 -7.98,17.66l50.83 0zm82.7 72.42c-5.85,0 -11.28,-0.94 -16.31,-2.81 -5.02,-1.87 -9.33,-4.5 -12.93,-7.87 -3.6,-3.37 -6.45,-7.35 -8.55,-11.92 -2.1,-4.57 -3.15,-9.56 -3.15,-14.96 0,-5.85 1.24,-11.17 3.71,-15.97 2.47,-4.8 5.96,-8.92 10.46,-12.37 4.5,-3.45 9.82,-6.15 15.97,-8.1 6.15,-1.95 12.97,-2.92 20.47,-2.92 4.95,0 9.75,0.41 14.4,1.24 4.65,0.83 8.7,2.06 12.14,3.71l0 -5.4c0,-13.65 -7.87,-20.47 -23.61,-20.47 -6.45,0 -12.6,1.09 -18.44,3.26 -5.85,2.17 -12,5.43 -18.44,9.78l-10.57 -22.49c7.8,-5.1 15.89,-8.92 24.29,-11.47 8.4,-2.55 17.32,-3.83 26.77,-3.83 17.84,0 31.64,4.2 41.38,12.6 9.75,8.4 14.62,20.69 14.62,36.89l0 30.36c0,3.6 0.56,6.11 1.69,7.53 1.13,1.43 3.11,2.29 5.96,2.59l0 30.36c-3.15,0.75 -6,1.24 -8.55,1.46 -2.55,0.23 -4.88,0.34 -6.97,0.34 -6.75,0 -11.85,-1.31 -15.29,-3.94 -3.45,-2.62 -5.62,-6.33 -6.52,-11.13l-0.67 -5.4c-5.25,6.75 -11.51,11.92 -18.78,15.52 -7.27,3.6 -14.96,5.4 -23.05,5.4zm10.57 -25.86c3.9,0 7.68,-0.67 11.36,-2.02 3.67,-1.35 6.71,-3.15 9.11,-5.4 3.45,-2.7 5.17,-5.55 5.17,-8.55l0 -11.25c-3.15,-1.2 -6.56,-2.14 -10.23,-2.81 -3.67,-0.67 -7.08,-1.01 -10.23,-1.01 -6.6,0 -12.03,1.5 -16.31,4.5 -4.27,3 -6.41,6.9 -6.41,11.7 0,4.35 1.65,7.91 4.95,10.68 3.3,2.77 7.5,4.16 12.6,4.16zm129.03 25.86c-10.05,0 -19.94,-1.61 -29.69,-4.83 -9.75,-3.23 -17.99,-7.91 -24.74,-14.06l12.82 -22.04c7.2,4.95 14.21,8.77 21.03,11.47 6.82,2.7 13.38,4.05 19.68,4.05 4.65,0 8.25,-0.82 10.79,-2.47 2.55,-1.65 3.83,-4.05 3.83,-7.2 0,-3.15 -1.61,-5.66 -4.84,-7.53 -3.22,-1.88 -8.88,-3.86 -16.98,-5.96 -7.95,-2.25 -14.66,-4.42 -20.13,-6.52 -5.47,-2.1 -9.93,-4.42 -13.38,-6.97 -3.45,-2.55 -5.92,-5.47 -7.42,-8.77 -1.5,-3.3 -2.25,-7.2 -2.25,-11.7 0,-6 1.2,-11.47 3.6,-16.42 2.4,-4.95 5.7,-9.15 9.9,-12.6 4.2,-3.45 9.18,-6.15 14.96,-8.1 5.77,-1.95 12.03,-2.93 18.78,-2.93 8.85,0 17.13,1.2 24.85,3.6 7.72,2.4 15.18,6.75 22.38,13.05l-13.95 21.59c-6.75,-4.65 -12.75,-8.02 -17.99,-10.12 -5.25,-2.1 -10.35,-3.15 -15.29,-3.15 -3.9,0 -7.2,0.79 -9.9,2.36 -2.7,1.58 -4.05,4.09 -4.05,7.53 0,3.3 1.46,5.77 4.39,7.42 2.92,1.65 8.36,3.45 16.31,5.4 8.4,2.25 15.48,4.5 21.25,6.75 5.77,2.25 10.46,4.76 14.06,7.54 3.6,2.77 6.22,5.96 7.87,9.56 1.65,3.6 2.47,7.87 2.47,12.82 0,11.7 -4.35,20.99 -13.05,27.89 -8.7,6.9 -20.47,10.35 -35.31,10.35z"/>
   <g>
    <path class="fil0" d="M219.46 180.64c21.44,0 38.82,17.38 38.82,38.82 0,21.44 -17.38,38.82 -38.82,38.82 -21.44,0 -38.82,-17.38 -38.82,-38.82 0,-21.44 17.38,-38.82 38.82,-38.82z"/>
    <path class="fil0" d="M252.81 404.77c-0.36,19.84 -18.74,32.53 -35.01,32.29 -15.12,-0.23 -29.58,-7.57 -31.71,-18.92l66.72 -13.37z"/>
    <path class="fil0" d="M219.45 71.47l0 0c10.5,0 19.09,-8.59 19.09,-19.09l0 -33.29c0,-10.5 -8.59,-19.09 -19.09,-19.09l0 0c-10.5,0 -19.09,8.59 -19.09,19.09l0 33.29c0,10.5 8.59,19.09 19.09,19.09z"/>
    <path class="fil0" d="M114.81 114.81l0 0c7.42,-7.42 7.42,-19.57 0,-27l-23.54 -23.54c-7.42,-7.42 -19.57,-7.42 -27,0l0 0c-7.42,7.42 -7.42,19.57 0,27l23.54 23.54c7.43,7.42 19.57,7.42 27,0z"/>
    <path class="fil0" d="M71.47 219.46l0 0c0,-10.5 -8.59,-19.09 -19.09,-19.09l-33.28 0c-10.5,0 -19.09,8.59 -19.09,19.09l0 0c0,10.5 8.59,19.09 19.09,19.09l33.28 0c10.5,0 19.09,-8.59 19.09,-19.09z"/>
    <path class="fil0" d="M114.81 324.1l0 0c-7.42,-7.43 -19.57,-7.43 -27,-0l-23.54 23.54c-7.42,7.42 -7.42,19.57 0,27l0 0c7.42,7.42 19.57,7.42 27,-0l23.54 -23.53c7.42,-7.42 7.42,-19.57 0,-27z"/>
    <path class="fil0" d="M324.1 114.81l0 0c7.42,7.43 19.57,7.43 27,0l23.53 -23.53c7.43,-7.42 7.43,-19.57 0,-27l0 0c-7.42,-7.42 -19.57,-7.42 -27,0l-23.54 23.54c-7.42,7.42 -7.42,19.57 0,27z"/>
    <path class="fil0" d="M367.45 219.45l0 0c0,10.5 8.59,19.09 19.09,19.09l33.28 0c10.5,0 19.09,-8.59 19.09,-19.09l0 0c0,-10.5 -8.59,-19.09 -19.09,-19.09l-33.28 0c-10.5,0 -19.09,8.59 -19.09,19.09z"/>
    <path class="fil0" d="M324.1 324.1l0 0c-7.43,7.43 -7.43,19.58 -0,27l23.54 23.54c7.42,7.43 19.57,7.43 27,0l0 0c7.42,-7.42 7.42,-19.57 -0,-27l-23.53 -23.54c-7.42,-7.42 -19.57,-7.42 -27,-0z"/>
    <polygon class="fil0" points="186.09,370.14 252.82,356.77 252.82,385.82 186.09,399.19 "/>
    <path class="fil0" d="M242.56 340.02c24.04,-4.53 45.99,-16.26 63.59,-33.87 23.07,-23.07 35.91,-54.06 35.91,-86.7 0,-32.64 -12.84,-63.62 -35.91,-86.7 -23.07,-23.07 -54.06,-35.91 -86.7,-35.91 -21.51,0 -42.59,5.76 -61.2,16.5l-1.77 1.03 -0.07 0c-7.38,4.43 -14.29,9.63 -20.59,15.51 -0.89,0.83 -1.77,1.67 -2.63,2.53 -4.42,4.37 -5.84,7.68 -1.14,12.39 5.34,5.36 10.68,10.72 16.01,16.1 0.66,0.66 1.48,1.34 2.45,1.44 3.97,0.42 13.38,-6.89 16.52,-9.15 15.44,-11.08 33.2,-18.14 52.41,-18.14 22.46,0 43.81,8.84 59.69,24.72 15.88,15.88 24.72,37.23 24.72,59.69 0,22.46 -8.84,43.81 -24.72,59.69 -7.7,7.7 -16.7,13.75 -26.48,17.94 -2.31,-10.17 -11.46,-17.83 -22.31,-17.83l-21.79 0c-12.58,0 -22.88,10.29 -22.88,22.88l0 9.62 -2.94 0.59c-10.01,3.18 -17.09,9.47 -17.93,22.36l0 20.84 77.74 -15.51z"/>
   </g>
  </g>
 </g>
</svg>
